<svg width="781" height="757" viewBox="0 0 781 757" fill="none" xmlns="http://www.w3.org/2000/svg">
<g clip-path="url(#clip0_209_2)">
<path d="M735.54 690.51L689.63 57.63C686.18 10.12 632.63 -15.84 593.16 10.9L68 367.1C28.58 393.84 32.89 453.24 75.76 474.01L646.76 750.68C689.71 771.46 739 738 735.54 690.51Z" fill="#6DC8C2"/>
<path d="M456.28 340C421.63 338.86 392.68 312.3 387.79 277.15L375.51 189L421.69 182.56C425.17 182.15 439.74 180.82 452.82 190.94C458.02 194.94 462.4 200.4 466.16 208.52C473.52 224.42 504.68 306.83 470.6 333.37C466.38 336.619 461.488 338.884 456.28 340Z" fill="black"/>
<path d="M604.32 751.86H326.82L304.4 413.86C343.517 396.739 384.477 384.186 426.47 376.45C486.47 365.45 533.99 364.99 576.94 370.33C586.08 497.78 595.17 624.41 604.32 751.86Z" fill="#001B43"/>
<path d="M453.72 336.68L442.72 306.49C453.55 306.05 462.21 296.64 462.21 285.06C462.21 273.19 453.14 263.58 441.94 263.58C437.139 263.592 432.512 265.372 428.94 268.58L408.23 211.67L323.32 239C319.385 240.264 315.737 242.292 312.586 244.967C309.434 247.642 306.841 250.912 304.954 254.589C303.067 258.267 301.923 262.28 301.588 266.4C301.252 270.52 301.732 274.666 303 278.6L326 350.07C329.502 360.906 337.16 369.91 347.293 375.107C357.426 380.303 369.206 381.268 380.05 377.79L392.4 372.27L402.72 394.33C403.164 395.305 403.935 396.094 404.9 396.56C422.83 405.18 442.84 403.07 455.16 391.56C463.67 383.63 468.38 376.49 469.74 371.82C470.038 370.727 469.921 369.562 469.41 368.55L453.72 336.68Z" fill="white"/>
<path d="M392.42 372.31L429.64 355.31C429.887 355.202 430.163 355.182 430.423 355.253C430.683 355.324 430.911 355.482 431.069 355.701C431.227 355.919 431.305 356.185 431.291 356.454C431.276 356.723 431.17 356.98 430.99 357.18L400.59 389.78L392.42 372.31Z" fill="black"/>
<path d="M440.24 293.94C438.802 293.942 437.395 293.517 436.198 292.72C435.001 291.922 434.068 290.787 433.516 289.459C432.964 288.131 432.819 286.669 433.098 285.258C433.378 283.847 434.069 282.551 435.086 281.533C436.102 280.515 437.397 279.822 438.808 279.54C440.219 279.259 441.681 279.403 443.01 279.952C444.339 280.502 445.475 281.434 446.274 282.63C447.073 283.826 447.5 285.232 447.5 286.67C447.5 288.596 446.735 290.444 445.374 291.807C444.013 293.17 442.166 293.937 440.24 293.94ZM440.24 283.41C439.592 283.408 438.959 283.598 438.42 283.957C437.88 284.316 437.46 284.826 437.211 285.424C436.962 286.022 436.897 286.68 437.022 287.316C437.148 287.951 437.46 288.534 437.918 288.992C438.376 289.45 438.959 289.762 439.595 289.888C440.23 290.014 440.888 289.948 441.486 289.699C442.084 289.45 442.595 289.03 442.953 288.49C443.312 287.951 443.502 287.318 443.5 286.67C443.5 285.805 443.157 284.976 442.545 284.365C441.934 283.753 441.105 283.41 440.24 283.41Z" fill="black"/>
<path d="M435.12 289.89C434.627 289.893 434.15 289.714 433.781 289.388C433.412 289.061 433.177 288.61 433.12 288.12C432.61 283.79 433.6 280.29 436.06 277.7C440.68 272.83 448.78 273.28 449.12 273.3C449.65 273.333 450.146 273.576 450.498 273.974C450.849 274.373 451.028 274.895 450.995 275.425C450.962 275.955 450.719 276.451 450.321 276.803C449.922 277.154 449.4 277.333 448.87 277.3C448.81 277.3 442.27 276.95 438.95 280.46C437.33 282.17 436.73 284.52 437.09 287.66C437.149 288.185 436.998 288.712 436.671 289.126C436.343 289.54 435.864 289.807 435.34 289.87L435.12 289.89Z" fill="black"/>
<path d="M361.43 345.9C358.847 345.931 356.294 345.349 353.98 344.2C353.545 343.923 353.233 343.489 353.11 342.988C352.988 342.487 353.063 341.958 353.321 341.511C353.58 341.065 354 340.735 354.496 340.591C354.991 340.448 355.523 340.501 355.98 340.74C356.44 340.99 366.73 346.56 377.26 331.69C377.406 331.462 377.596 331.266 377.82 331.114C378.044 330.961 378.296 330.856 378.562 330.804C378.828 330.752 379.101 330.755 379.366 330.812C379.63 330.869 379.881 330.979 380.101 331.135C380.322 331.292 380.509 331.492 380.65 331.722C380.792 331.953 380.885 332.21 380.924 332.478C380.963 332.746 380.948 333.019 380.878 333.28C380.809 333.542 380.687 333.787 380.52 334C373.69 343.65 366.57 345.9 361.43 345.9Z" fill="black"/>
<path d="M373.71 292.36C376.129 292.36 378.09 290.399 378.09 287.98C378.09 285.561 376.129 283.6 373.71 283.6C371.291 283.6 369.33 285.561 369.33 287.98C369.33 290.399 371.291 292.36 373.71 292.36Z" fill="black"/>
<path d="M322.44 310.91C324.859 310.91 326.82 308.949 326.82 306.53C326.82 304.111 324.859 302.15 322.44 302.15C320.021 302.15 318.06 304.111 318.06 306.53C318.06 308.949 320.021 310.91 322.44 310.91Z" fill="black"/>
<path d="M321.33 330.51C311.28 330.51 301.95 322.41 299.54 310.86C296.82 297.86 303.89 285.34 315.29 282.95C318.112 282.391 321.022 282.453 323.818 283.131C326.614 283.81 329.228 285.089 331.48 286.88C336.36 290.694 339.706 296.135 340.91 302.21C342.242 308.258 341.355 314.583 338.41 320.03C337.066 322.574 335.183 324.795 332.893 326.538C330.603 328.28 327.961 329.503 325.15 330.12C323.893 330.379 322.613 330.509 321.33 330.51ZM319.14 286.51C318.132 286.515 317.127 286.622 316.14 286.83C306.89 288.76 301.21 299.16 303.48 310C305.75 320.84 315.12 328.09 324.36 326.16C326.609 325.659 328.721 324.673 330.548 323.27C332.376 321.868 333.875 320.083 334.94 318.04C337.41 313.437 338.141 308.098 337 303C336.01 297.852 333.194 293.236 329.07 290C326.23 287.789 322.739 286.576 319.14 286.55V286.51Z" fill="black"/>
<path d="M340.66 303C340.186 302.997 339.728 302.825 339.369 302.515C339.009 302.205 338.772 301.778 338.698 301.309C338.625 300.84 338.721 300.361 338.968 299.956C339.216 299.552 339.599 299.248 340.05 299.1L358.11 293.28C358.602 293.158 359.123 293.227 359.566 293.474C360.009 293.721 360.342 294.127 360.497 294.61C360.652 295.093 360.618 295.616 360.401 296.075C360.184 296.534 359.802 296.893 359.33 297.08L341.28 302.91C341.079 302.969 340.87 303 340.66 303Z" fill="black"/>
<path d="M349.64 324.34C348.62 324.367 347.606 324.171 346.67 323.765C345.734 323.359 344.898 322.753 344.22 321.99C342.22 319.56 342.56 316.23 343.51 314.12C344.187 312.641 345.287 311.396 346.67 310.54L338.44 288.54C338.289 288.052 338.33 287.525 338.554 287.067C338.779 286.608 339.171 286.253 339.649 286.074C340.127 285.895 340.656 285.906 341.126 286.104C341.597 286.302 341.974 286.673 342.18 287.14L351.78 312.73L349.78 313.39C349.206 313.58 348.675 313.883 348.22 314.281C347.765 314.68 347.394 315.166 347.13 315.71C346.77 316.5 346.34 318.28 347.25 319.36C348.16 320.44 350.25 320.76 352.19 319.51C352.409 319.349 352.658 319.234 352.923 319.172C353.188 319.11 353.463 319.103 353.73 319.151C353.998 319.199 354.253 319.301 354.48 319.451C354.706 319.601 354.9 319.796 355.049 320.023C355.198 320.25 355.3 320.506 355.347 320.774C355.394 321.041 355.386 321.316 355.323 321.581C355.26 321.845 355.144 322.094 354.982 322.312C354.82 322.531 354.615 322.714 354.38 322.85C352.977 323.795 351.331 324.312 349.64 324.34Z" fill="black"/>
<path d="M365.073 245.961C390.384 240.669 407.725 221.185 403.806 202.443C399.887 183.7 376.192 172.797 350.881 178.089C325.571 183.381 308.229 202.865 312.148 221.608C316.067 240.35 339.762 251.254 365.073 245.961Z" fill="black"/>
<path d="M442.28 246.11L417.19 252.63C410.361 254.403 403.107 253.391 397.024 249.817C390.94 246.242 386.526 240.399 384.75 233.57L379.46 213.21L430.3 200L442.28 246.11Z" fill="black"/>
<path d="M301.4 271.65C320.31 271.65 335.64 256.32 335.64 237.41C335.64 218.5 320.31 203.17 301.4 203.17C282.49 203.17 267.16 218.5 267.16 237.41C267.16 256.32 282.49 271.65 301.4 271.65Z" fill="black"/>
<path d="M394.78 283.56C394.314 283.561 393.862 283.4 393.503 283.103C393.143 282.807 392.899 282.394 392.811 281.937C392.723 281.479 392.798 281.005 393.022 280.597C393.247 280.188 393.607 279.871 394.04 279.7L431.48 264.7C431.727 264.586 431.994 264.523 432.265 264.516C432.537 264.509 432.807 264.557 433.059 264.658C433.312 264.758 433.541 264.909 433.733 265.101C433.925 265.293 434.076 265.522 434.177 265.774C434.277 266.027 434.326 266.297 434.318 266.568C434.311 266.84 434.249 267.107 434.135 267.354C434.021 267.6 433.858 267.821 433.656 268.003C433.454 268.184 433.217 268.323 432.96 268.41L395.52 283.41C395.284 283.504 395.034 283.555 394.78 283.56Z" fill="black"/>
<path d="M253.4 602.27L244.65 719.13L247.72 747.8H326.55L317.17 606.35L253.4 602.27Z" fill="white"/>
<path d="M328.69 749.8H245.92L242.65 719.16L251.56 600.16L319.05 604.47L328.69 749.8ZM249.52 745.8H324.41L315.29 608.23L255.29 604.39L246.66 719.1L249.52 745.8Z" fill="black"/>
<path d="M304.4 413.87C301.043 415.228 297.814 416.881 294.75 418.81C271.85 433.25 264.31 459.81 258.51 485.72C252.35 513.27 243.28 576.65 240.1 625.87C264.94 627.45 293.94 629.04 318.78 630.63L304.4 413.87Z" fill="#001B43"/>
<path d="M282.25 512.1H42.44C41.9096 512.1 41.4009 511.889 41.0258 511.514C40.6507 511.139 40.44 510.63 40.44 510.1C40.44 509.57 40.6507 509.061 41.0258 508.686C41.4009 508.311 41.9096 508.1 42.44 508.1H282.25C282.78 508.1 283.289 508.311 283.664 508.686C284.039 509.061 284.25 509.57 284.25 510.1C284.25 510.63 284.039 511.139 283.664 511.514C283.289 511.889 282.78 512.1 282.25 512.1Z" fill="black"/>
<path d="M164.29 511H64.77C62.7649 510.997 60.8424 510.2 59.4236 508.783C58.0049 507.367 57.2053 505.445 57.2 503.44V489.29C57.2026 487.283 58.001 485.359 59.4201 483.94C60.8392 482.521 62.7631 481.723 64.77 481.72H164.29C166.297 481.723 168.221 482.521 169.64 483.94C171.059 485.359 171.857 487.283 171.86 489.29V503.45C171.852 505.453 171.051 507.372 169.633 508.787C168.214 510.202 166.293 510.997 164.29 511ZM64.77 485.71C64.3012 485.71 63.837 485.802 63.4038 485.982C62.9707 486.161 62.5771 486.424 62.2456 486.756C61.9141 487.087 61.6512 487.481 61.4718 487.914C61.2923 488.347 61.2 488.811 61.2 489.28V503.44C61.2026 504.385 61.5799 505.291 62.2492 505.958C62.9184 506.625 63.8249 507 64.77 507H164.29C165.235 507 166.142 506.625 166.811 505.958C167.48 505.291 167.857 504.385 167.86 503.44V489.29C167.86 488.343 167.484 487.435 166.814 486.766C166.145 486.096 165.237 485.72 164.29 485.72L64.77 485.71Z" fill="black"/>
<path d="M164.28 456.83H64.77C61.6938 456.83 59.2 459.324 59.2 462.4V476.55C59.2 479.626 61.6938 482.12 64.77 482.12H164.28C167.356 482.12 169.85 479.626 169.85 476.55V462.4C169.85 459.324 167.356 456.83 164.28 456.83Z" fill="#FFBB45"/>
<path d="M190.42 510.5H176.25C174.246 510.497 172.324 509.7 170.907 508.283C169.49 506.866 168.693 504.944 168.69 502.94V420.53C168.693 418.526 169.49 416.604 170.907 415.187C172.324 413.77 174.246 412.973 176.25 412.97H190.42C192.424 412.973 194.346 413.77 195.763 415.187C197.18 416.604 197.977 418.526 197.98 420.53V502.94C197.977 504.944 197.18 506.866 195.763 508.283C194.346 509.7 192.424 510.497 190.42 510.5ZM176.25 417C175.307 417.003 174.403 417.379 173.736 418.046C173.069 418.713 172.693 419.617 172.69 420.56V502.97C172.693 503.913 173.069 504.817 173.736 505.484C174.403 506.151 175.307 506.527 176.25 506.53H190.42C191.363 506.527 192.267 506.151 192.934 505.484C193.601 504.817 193.977 503.913 193.98 502.97V420.53C193.977 419.587 193.601 418.683 192.934 418.016C192.267 417.349 191.363 416.973 190.42 416.97L176.25 417Z" fill="black"/>
<path d="M217.48 414.97H203.33C200.254 414.97 197.76 417.464 197.76 420.54V502.94C197.76 506.016 200.254 508.51 203.33 508.51H217.48C220.556 508.51 223.05 506.016 223.05 502.94V420.54C223.05 417.464 220.556 414.97 217.48 414.97Z" fill="#FFC1EB"/>
<path d="M427.22 426.51C413.949 426.383 400.987 422.492 389.84 415.29C389.418 414.991 389.129 414.541 389.032 414.033C388.935 413.526 389.038 413 389.32 412.567C389.602 412.134 390.04 411.827 390.544 411.71C391.047 411.593 391.576 411.676 392.02 411.94C398.23 415.94 415.02 425.06 436.25 421.83C465.52 417.39 480.02 393.62 482.63 388.9C482.751 388.659 482.919 388.445 483.124 388.271C483.329 388.097 483.568 387.966 483.825 387.886C484.082 387.806 484.353 387.779 484.621 387.806C484.889 387.833 485.148 387.914 485.384 388.044C485.62 388.174 485.827 388.351 485.993 388.563C486.159 388.775 486.281 389.018 486.35 389.278C486.42 389.538 486.436 389.81 486.398 390.077C486.361 390.343 486.269 390.599 486.13 390.83C483.36 395.83 467.97 421.06 436.85 425.78C433.663 426.268 430.444 426.512 427.22 426.51Z" fill="white"/>
<path d="M354.575 438.393L308.746 450.459C302.701 452.051 299.09 458.242 300.682 464.288L325.253 557.618C326.845 563.663 333.036 567.274 339.082 565.682L384.911 553.617C390.956 552.025 394.567 545.834 392.975 539.788L368.404 446.458C366.812 440.412 360.621 436.802 354.575 438.393Z" fill="#FFC1EB"/>
<path d="M353.67 454.683L352.909 454.854C350.446 455.406 348.897 457.85 349.45 460.313L353.927 480.277C354.479 482.74 356.923 484.288 359.386 483.736L360.147 483.565C362.61 483.013 364.159 480.569 363.606 478.106L359.129 458.142C358.577 455.679 356.133 454.131 353.67 454.683Z" fill="white"/>
<path d="M377 309.66C367 309.66 357.81 301.88 355.48 290.75C352.87 278.16 360 266 371.42 263.6C382.84 261.2 394.25 269.51 396.88 282.1C399.51 294.69 392.37 306.87 380.96 309.25C379.658 309.526 378.331 309.664 377 309.66ZM375.35 267.19C374.298 267.188 373.249 267.295 372.22 267.51C362.97 269.45 357.22 279.51 359.4 289.93C361.58 300.35 370.87 307.27 380.12 305.34C389.37 303.41 395.12 293.34 392.94 282.92C391 273.67 383.5 267.19 375.37 267.19H375.35Z" fill="black"/>
<path d="M617.32 148.15H534.54C522.5 148.15 512.74 157.91 512.74 169.95V247.71C512.74 259.75 522.5 269.51 534.54 269.51H617.32C629.36 269.51 639.12 259.75 639.12 247.71V169.95C639.12 157.91 629.36 148.15 617.32 148.15Z" fill="white"/>
<path d="M562.45 562.6L316.78 591.05L313.86 556.33L555.3 527.81L562.45 562.6Z" fill="#C7B8F8"/>
<path d="M579.96 638.93L319.34 668.4L316.83 630.86L571.75 601.12L579.96 638.93Z" fill="#C7B8F8"/>
<path d="M400.92 518.9C400.92 518.9 368.18 521.8 351.1 492.47C349.497 489.702 347.313 487.314 344.7 485.47C340.21 482.31 333.49 480.33 326.55 488.26C326.55 488.26 315.27 473.33 306.94 481.86C306.94 481.86 301 489.39 308.94 502.08C308.94 502.08 296.25 507.35 308.82 529.54C310.75 532.95 312.63 536.39 314.3 539.93C321.06 554.19 345.1 594.68 402.4 600.56C406.135 600.96 409.678 602.421 412.61 604.77L548.45 712.62C560.964 722.648 575.581 729.72 591.21 733.31C613.57 738.31 653.82 735.69 674.65 706.65C686.881 689.356 692.163 668.097 689.45 647.09L683.14 595.79L570 614.33L455.79 542.72C451.977 540.318 448.871 536.947 446.79 532.95C440.16 520.3 423.46 490.95 404.93 478.18C404.29 477.74 403.66 477.31 403.04 476.85C399.04 473.85 394.04 471.37 388.99 471.29C380.99 471.17 374.21 478.56 379.15 486.06C381.32 489.36 384.81 492.06 388.04 494.28C391.389 496.559 394.238 499.497 396.412 502.916C398.585 506.334 400.038 510.16 400.68 514.16C400.918 515.728 400.998 517.316 400.92 518.9Z" fill="white"/>
<path d="M365.4 539.74C365.094 539.738 364.793 539.666 364.52 539.53C359.198 536.937 354.212 533.707 349.67 529.91C334.28 517 327.55 500.39 324.61 488.73C324.477 488.215 324.555 487.669 324.825 487.212C325.095 486.754 325.535 486.423 326.05 486.29C326.564 486.157 327.111 486.235 327.568 486.505C328.026 486.775 328.357 487.215 328.49 487.73C331.28 498.82 337.67 514.6 352.24 526.83C356.52 530.417 361.222 533.469 366.24 535.92C366.648 536.118 366.977 536.448 367.173 536.857C367.368 537.266 367.419 537.729 367.317 538.171C367.214 538.613 366.965 539.007 366.61 539.288C366.254 539.57 365.813 539.722 365.36 539.72L365.4 539.74Z" fill="black"/>
<path d="M352.56 556.64C352.251 556.644 351.945 556.572 351.67 556.43C348.986 555.223 346.488 553.641 344.25 551.73C343.48 551.11 342.51 550.34 341.25 549.32C326.25 537.71 314.47 521.62 307.11 502.79C307.001 502.543 306.942 502.277 306.939 502.007C306.935 501.737 306.986 501.469 307.088 501.22C307.191 500.97 307.343 500.743 307.535 500.554C307.728 500.365 307.956 500.216 308.208 500.118C308.459 500.019 308.728 499.972 308.997 499.98C309.267 499.988 309.533 500.051 309.778 500.164C310.023 500.277 310.242 500.439 310.423 500.639C310.604 500.84 310.742 501.075 310.83 501.33C317.94 519.49 329.3 534.99 343.7 546.16C345.03 547.16 346.01 547.98 346.79 548.61C348.807 550.347 351.067 551.779 353.5 552.86C353.899 553.064 354.217 553.396 354.405 553.803C354.592 554.21 354.637 554.668 354.534 555.103C354.43 555.539 354.183 555.927 353.832 556.206C353.482 556.484 353.048 556.637 352.6 556.64H352.56Z" fill="black"/>
<path d="M410.94 751.82H242.8V715.53H410.94C413.175 715.533 415.318 716.422 416.898 718.002C418.478 719.582 419.367 721.725 419.37 723.96V743.4C419.367 745.634 418.478 747.776 416.897 749.354C415.317 750.933 413.174 751.82 410.94 751.82Z" fill="#4C4F72"/>
<path d="M261.74 751.82H65.05C61.3852 751.857 57.8066 750.709 54.8476 748.546C51.8887 746.384 49.7077 743.323 48.63 739.82L0.459999 576.52C-2.66 565.94 5.53 555.4 16.88 555.4H202.4C206.226 555.365 209.951 556.621 212.975 558.966C215.998 561.31 218.142 564.606 219.06 568.32L261.74 751.82Z" fill="#4C4F72"/>
<path d="M118.89 696.36C133.945 696.36 146.15 684.155 146.15 669.1C146.15 654.045 133.945 641.84 118.89 641.84C103.835 641.84 91.63 654.045 91.63 669.1C91.63 684.155 103.835 696.36 118.89 696.36Z" fill="#FFC1EB"/>
<path d="M112.9 649.65C112.452 649.649 112.017 649.498 111.665 649.22C111.314 648.943 111.065 648.555 110.96 648.12L107.7 634.77C107.638 634.515 107.626 634.249 107.666 633.99C107.706 633.73 107.797 633.48 107.934 633.256C108.07 633.031 108.25 632.835 108.462 632.68C108.674 632.524 108.915 632.412 109.17 632.35C109.425 632.288 109.691 632.276 109.95 632.316C110.21 632.356 110.46 632.447 110.684 632.584C110.909 632.72 111.105 632.9 111.26 633.112C111.416 633.324 111.528 633.565 111.59 633.82L114.84 647.17C114.913 647.464 114.918 647.772 114.854 648.068C114.791 648.365 114.661 648.643 114.474 648.882C114.287 649.121 114.048 649.315 113.775 649.448C113.503 649.581 113.203 649.65 112.9 649.65Z" fill="#6DC8C2"/>
<path d="M705.37 594.41L572.47 616.65L523.67 367.35L558.31 367.84C579.801 368.025 600.668 375.09 617.85 388C626.805 394.764 634.422 403.137 640.31 412.69C644.538 419.631 647.798 427.117 650 434.94L705.37 594.41Z" fill="#001B43"/>
<path d="M763.24 306.53H616.97C607.073 306.53 599.05 314.553 599.05 324.45V418.02C599.05 427.917 607.073 435.94 616.97 435.94H763.24C773.137 435.94 781.16 427.917 781.16 418.02V324.45C781.16 314.553 773.137 306.53 763.24 306.53Z" fill="white"/>
<path d="M763.24 437.94H617C611.715 437.927 606.65 435.822 602.911 432.086C599.173 428.349 597.066 423.285 597.05 418V324.46C597.068 319.176 599.177 314.115 602.915 310.381C606.653 306.647 611.716 304.543 617 304.53H763.24C768.52 304.548 773.579 306.654 777.312 310.388C781.046 314.121 783.152 319.18 783.17 324.46V418C783.154 423.282 781.05 428.343 777.316 432.079C773.582 435.815 768.522 437.922 763.24 437.94ZM617 308.53C612.783 308.551 608.744 310.236 605.763 313.22C602.781 316.203 601.098 320.242 601.08 324.46V418C601.08 422.224 602.757 426.275 605.742 429.264C608.727 432.253 612.776 433.935 617 433.94H763.24C767.466 433.937 771.518 432.257 774.505 429.268C777.492 426.279 779.17 422.226 779.17 418V324.46C779.152 320.241 777.467 316.2 774.484 313.216C771.5 310.233 767.459 308.548 763.24 308.53H617Z" fill="black"/>
<path d="M757.06 351.28H702.79C702.26 351.28 701.751 351.069 701.376 350.694C701.001 350.319 700.79 349.81 700.79 349.28C700.79 348.75 701.001 348.241 701.376 347.866C701.751 347.491 702.26 347.28 702.79 347.28H757.06C757.59 347.28 758.099 347.491 758.474 347.866C758.849 348.241 759.06 348.75 759.06 349.28C759.06 349.81 758.849 350.319 758.474 350.694C758.099 351.069 757.59 351.28 757.06 351.28Z" fill="black"/>
<path d="M757.06 373.24H702.79C702.26 373.24 701.751 373.029 701.376 372.654C701.001 372.279 700.79 371.77 700.79 371.24C700.79 370.71 701.001 370.201 701.376 369.826C701.751 369.451 702.26 369.24 702.79 369.24H757.06C757.59 369.24 758.099 369.451 758.474 369.826C758.849 370.201 759.06 370.71 759.06 371.24C759.06 371.77 758.849 372.279 758.474 372.654C758.099 373.029 757.59 373.24 757.06 373.24Z" fill="black"/>
<path d="M738.12 395.19H702.79C702.26 395.19 701.751 394.979 701.376 394.604C701.001 394.229 700.79 393.72 700.79 393.19C700.79 392.66 701.001 392.151 701.376 391.776C701.751 391.401 702.26 391.19 702.79 391.19H738.12C738.65 391.19 739.159 391.401 739.534 391.776C739.909 392.151 740.12 392.66 740.12 393.19C740.12 393.72 739.909 394.229 739.534 394.604C739.159 394.979 738.65 395.19 738.12 395.19Z" fill="black"/>
<path d="M601.49 633.15C601.14 633.158 600.795 633.072 600.49 632.9L570.74 616.48C570.298 616.213 569.976 615.785 569.842 615.286C569.709 614.786 569.774 614.255 570.023 613.802C570.273 613.35 570.687 613.012 571.181 612.858C571.674 612.705 572.208 612.749 572.67 612.98L602.42 629.4C602.81 629.616 603.118 629.956 603.292 630.367C603.467 630.777 603.5 631.234 603.385 631.666C603.27 632.097 603.014 632.477 602.658 632.746C602.302 633.015 601.866 633.157 601.42 633.15H601.49Z" fill="black"/>
<path d="M282.25 376.6H42.44C41.9096 376.6 41.4009 376.389 41.0258 376.014C40.6507 375.639 40.44 375.13 40.44 374.6C40.44 374.07 40.6507 373.561 41.0258 373.186C41.4009 372.811 41.9096 372.6 42.44 372.6H282.25C282.78 372.6 283.289 372.811 283.664 373.186C284.039 373.561 284.25 374.07 284.25 374.6C284.25 375.13 284.039 375.639 283.664 376.014C283.289 376.389 282.78 376.6 282.25 376.6Z" fill="black"/>
<path d="M208.52 371.71C228.143 371.71 244.05 355.803 244.05 336.18C244.05 316.557 228.143 300.65 208.52 300.65C188.897 300.65 172.99 316.557 172.99 336.18C172.99 355.803 188.897 371.71 208.52 371.71Z" fill="white"/>
<path d="M136.08 375.07H85C80.2781 375.065 75.7512 373.187 72.4123 369.848C69.0734 366.509 67.1953 361.982 67.19 357.26V283.83C67.19 279.105 69.0658 274.573 72.4052 271.229C75.7447 267.886 80.2747 266.005 85 266H136.11C140.832 266.005 145.359 267.883 148.698 271.222C152.037 274.561 153.915 279.088 153.92 283.81V357.24C153.92 359.582 153.458 361.902 152.562 364.066C151.665 366.229 150.351 368.195 148.694 369.851C147.037 371.507 145.071 372.82 142.906 373.716C140.742 374.611 138.422 375.071 136.08 375.07ZM85 270C81.339 270.005 77.8294 271.462 75.2407 274.051C72.652 276.639 71.1953 280.149 71.19 283.81V357.24C71.1887 359.055 71.5449 360.852 72.2382 362.529C72.9315 364.207 73.9483 365.731 75.2307 367.015C76.5131 368.299 78.0359 369.318 79.7121 370.014C81.3883 370.71 83.1851 371.069 85 371.07H136.11C139.771 371.065 143.281 369.608 145.869 367.019C148.458 364.431 149.915 360.921 149.92 357.26V283.83C149.92 282.013 149.562 280.214 148.866 278.535C148.171 276.857 147.151 275.332 145.866 274.047C144.58 272.763 143.055 271.744 141.376 271.05C139.696 270.355 137.897 269.999 136.08 270H85Z" fill="black"/>
<path d="M150.83 348.69H69.16C68.6296 348.69 68.1209 348.479 67.7458 348.104C67.3707 347.729 67.16 347.22 67.16 346.69C67.16 346.16 67.3707 345.651 67.7458 345.276C68.1209 344.901 68.6296 344.69 69.16 344.69H150.83C151.36 344.69 151.869 344.901 152.244 345.276C152.619 345.651 152.83 346.16 152.83 346.69C152.83 347.22 152.619 347.729 152.244 348.104C151.869 348.479 151.36 348.69 150.83 348.69Z" fill="black"/>
<path d="M102 365.52C104.679 365.52 106.85 363.349 106.85 360.67C106.85 357.991 104.679 355.82 102 355.82C99.3214 355.82 97.15 357.991 97.15 360.67C97.15 363.349 99.3214 365.52 102 365.52Z" fill="white"/>
<path d="M119.02 365.52C121.699 365.52 123.87 363.349 123.87 360.67C123.87 357.991 121.699 355.82 119.02 355.82C116.341 355.82 114.17 357.991 114.17 360.67C114.17 363.349 116.341 365.52 119.02 365.52Z" fill="white"/>
<path d="M201.07 309.94C200.613 309.939 200.171 309.781 199.816 309.494C199.462 309.206 199.216 308.806 199.12 308.36C193.92 284.36 199.79 267.94 205.63 258.36C212.01 247.95 219.63 243.3 219.92 243.11C220.375 242.837 220.92 242.756 221.434 242.884C221.949 243.012 222.392 243.34 222.665 243.795C222.938 244.25 223.019 244.795 222.891 245.309C222.763 245.824 222.435 246.267 221.98 246.54C220.78 247.27 193.68 264.32 202.98 307.48C203.09 307.997 202.991 308.537 202.704 308.981C202.417 309.425 201.966 309.737 201.45 309.85C201.326 309.891 201.199 309.921 201.07 309.94Z" fill="black"/>
<path d="M246 246L237.39 244.13C237.32 243.66 237.23 243.13 237.12 242.72L244.64 238.5C246.059 237.545 247.066 236.091 247.462 234.427C247.857 232.763 247.613 231.012 246.776 229.52C245.94 228.028 244.573 226.906 242.947 226.376C241.321 225.846 239.555 225.948 238 226.66L230.09 231.1C229.96 231.17 229.86 231.26 229.74 231.34C229.36 231.06 228.97 230.79 228.57 230.54L230.31 222.49C230.691 220.726 230.355 218.884 229.377 217.367C228.399 215.851 226.859 214.786 225.095 214.405C223.331 214.024 221.489 214.36 219.972 215.338C218.456 216.316 217.391 217.856 217.01 219.62L215.27 227.62C214.597 227.71 213.929 227.837 213.27 228C213.127 227.732 212.97 227.472 212.8 227.22L207.34 220C206.254 218.56 204.64 217.61 202.854 217.36C201.068 217.109 199.255 217.579 197.815 218.665C196.375 219.751 195.425 221.365 195.175 223.151C194.924 224.937 195.394 226.75 196.48 228.19L201.94 235.44C201.94 235.5 202.04 235.54 202.09 235.6C201.9 235.86 201.74 236.13 201.56 236.39L193.23 234.59C191.466 234.21 189.624 234.545 188.107 235.522C186.591 236.498 185.523 238.037 185.14 239.8C184.95 240.673 184.935 241.575 185.094 242.455C185.253 243.334 185.584 244.174 186.068 244.925C186.552 245.676 187.179 246.325 187.914 246.834C188.649 247.342 189.476 247.701 190.35 247.89L198.61 249.68C198.61 249.88 198.66 250.08 198.69 250.28H198.62L190.7 254.72C189.196 255.639 188.106 257.105 187.66 258.81C187.214 260.515 187.447 262.327 188.31 263.864C189.172 265.402 190.597 266.545 192.285 267.053C193.973 267.561 195.792 267.395 197.36 266.59L205.28 262.15C205.34 262.15 205.38 262.07 205.44 262.04C206.075 262.571 206.743 263.062 207.44 263.51L205.71 271.51C205.497 272.393 205.462 273.31 205.609 274.206C205.755 275.103 206.08 275.961 206.563 276.73C207.046 277.499 207.678 278.164 208.422 278.685C209.166 279.206 210.006 279.574 210.894 279.765C211.782 279.957 212.7 279.968 213.592 279.8C214.485 279.632 215.335 279.286 216.092 278.785C216.849 278.283 217.498 277.635 218.001 276.878C218.504 276.122 218.85 275.272 219.02 274.38L220.74 266.38C221.24 266.31 221.74 266.22 222.23 266.11L227.52 273.11C228.028 273.889 228.689 274.555 229.464 275.069C230.239 275.582 231.111 275.932 232.026 276.095C232.941 276.259 233.88 276.234 234.785 276.021C235.69 275.808 236.542 275.412 237.288 274.857C238.034 274.302 238.659 273.601 239.123 272.796C239.588 271.991 239.883 271.099 239.99 270.175C240.097 269.252 240.014 268.316 239.746 267.426C239.477 266.536 239.03 265.71 238.43 265L233.73 258.75C234.03 258.34 234.32 257.92 234.59 257.48L243.12 259.33C243.993 259.52 244.895 259.535 245.775 259.376C246.654 259.217 247.494 258.886 248.245 258.402C248.996 257.918 249.645 257.291 250.154 256.556C250.662 255.821 251.021 254.994 251.21 254.12C251.404 253.245 251.423 252.339 251.266 251.457C251.109 250.574 250.779 249.731 250.294 248.976C249.81 248.221 249.181 247.57 248.444 247.059C247.707 246.548 246.877 246.188 246 246Z" fill="#FFC1EB"/>
<path d="M246 246L237.39 244.13C237.32 243.66 237.23 243.13 237.12 242.72L244.64 238.5C246.059 237.545 247.066 236.091 247.462 234.427C247.857 232.763 247.613 231.012 246.776 229.52C245.94 228.028 244.573 226.906 242.947 226.376C241.321 225.846 239.555 225.948 238 226.66L230.09 231.1C229.96 231.17 229.86 231.26 229.74 231.34C229.36 231.06 228.97 230.79 228.57 230.54L230.31 222.49C230.691 220.726 230.355 218.884 229.377 217.367C228.399 215.851 226.859 214.786 225.095 214.405C223.331 214.024 221.489 214.36 219.972 215.338C218.456 216.316 217.391 217.856 217.01 219.62L215.27 227.62C214.597 227.71 213.929 227.837 213.27 228C213.127 227.732 212.97 227.472 212.8 227.22L207.34 220C206.254 218.56 204.64 217.61 202.854 217.36C201.068 217.109 199.255 217.579 197.815 218.665C196.375 219.751 195.425 221.365 195.175 223.151C194.924 224.937 195.394 226.75 196.48 228.19L201.94 235.44C201.94 235.5 202.04 235.54 202.09 235.6C201.9 235.86 201.74 236.13 201.56 236.39L193.23 234.59C191.466 234.21 189.624 234.545 188.107 235.522C186.591 236.498 185.523 238.037 185.14 239.8C184.95 240.673 184.935 241.575 185.094 242.455C185.253 243.334 185.584 244.174 186.068 244.925C186.552 245.676 187.179 246.325 187.914 246.834C188.649 247.342 189.476 247.701 190.35 247.89L198.61 249.68C198.61 249.88 198.66 250.08 198.69 250.28H198.62L190.7 254.72C189.196 255.639 188.106 257.105 187.66 258.81C187.214 260.515 187.447 262.327 188.31 263.864C189.172 265.402 190.597 266.545 192.285 267.053C193.973 267.561 195.792 267.395 197.36 266.59L205.28 262.15C205.34 262.15 205.38 262.07 205.44 262.04C206.075 262.571 206.743 263.062 207.44 263.51L205.71 271.51C205.497 272.393 205.462 273.31 205.609 274.206C205.755 275.103 206.08 275.961 206.563 276.73C207.046 277.499 207.678 278.164 208.422 278.685C209.166 279.206 210.006 279.574 210.894 279.765C211.782 279.957 212.7 279.968 213.592 279.8C214.485 279.632 215.335 279.286 216.092 278.785C216.849 278.283 217.498 277.635 218.001 276.878C218.504 276.122 218.85 275.272 219.02 274.38L220.74 266.38C221.24 266.31 221.74 266.22 222.23 266.11L227.52 273.11C228.028 273.889 228.689 274.555 229.464 275.069C230.239 275.582 231.111 275.932 232.026 276.095C232.941 276.259 233.88 276.234 234.785 276.021C235.69 275.808 236.542 275.412 237.288 274.857C238.034 274.302 238.659 273.601 239.123 272.796C239.588 271.991 239.883 271.099 239.99 270.175C240.097 269.252 240.014 268.316 239.746 267.426C239.477 266.536 239.03 265.71 238.43 265L233.73 258.75C234.03 258.34 234.32 257.92 234.59 257.48L243.12 259.33C243.993 259.52 244.895 259.535 245.775 259.376C246.654 259.217 247.494 258.886 248.245 258.402C248.996 257.918 249.645 257.291 250.154 256.556C250.662 255.821 251.021 254.994 251.21 254.12C251.404 253.245 251.423 252.339 251.266 251.457C251.109 250.574 250.779 249.731 250.294 248.976C249.81 248.221 249.181 247.57 248.444 247.059C247.707 246.548 246.877 246.188 246 246Z" fill="#FFC1EB"/>
<path d="M246 246L237.39 244.13C237.32 243.66 237.23 243.13 237.12 242.72L244.64 238.5C246.059 237.545 247.066 236.091 247.462 234.427C247.857 232.763 247.613 231.012 246.776 229.52C245.94 228.028 244.573 226.906 242.947 226.376C241.321 225.846 239.555 225.948 238 226.66L230.09 231.1C229.96 231.17 229.86 231.26 229.74 231.34C229.36 231.06 228.97 230.79 228.57 230.54L230.31 222.49C230.691 220.726 230.355 218.884 229.377 217.367C228.399 215.851 226.859 214.786 225.095 214.405C223.331 214.024 221.489 214.36 219.972 215.338C218.456 216.316 217.391 217.856 217.01 219.62L215.27 227.62C214.597 227.71 213.929 227.837 213.27 228C213.127 227.732 212.97 227.472 212.8 227.22L207.34 220C206.254 218.56 204.64 217.61 202.854 217.36C201.068 217.109 199.255 217.579 197.815 218.665C196.375 219.751 195.425 221.365 195.175 223.151C194.924 224.937 195.394 226.75 196.48 228.19L201.94 235.44C201.94 235.5 202.04 235.54 202.09 235.6C201.9 235.86 201.74 236.13 201.56 236.39L193.23 234.59C191.466 234.21 189.624 234.545 188.107 235.522C186.591 236.498 185.523 238.037 185.14 239.8C184.95 240.673 184.935 241.575 185.094 242.455C185.253 243.334 185.584 244.174 186.068 244.925C186.552 245.676 187.179 246.325 187.914 246.834C188.649 247.342 189.476 247.701 190.35 247.89L198.61 249.68C198.61 249.88 198.66 250.08 198.69 250.28H198.62L190.7 254.72C189.196 255.639 188.106 257.105 187.66 258.81C187.214 260.515 187.447 262.327 188.31 263.864C189.172 265.402 190.597 266.545 192.285 267.053C193.973 267.561 195.792 267.395 197.36 266.59L205.28 262.15C205.34 262.15 205.38 262.07 205.44 262.04C206.075 262.571 206.743 263.062 207.44 263.51L205.71 271.51C205.497 272.393 205.462 273.31 205.609 274.206C205.755 275.103 206.08 275.961 206.563 276.73C207.046 277.499 207.678 278.164 208.422 278.685C209.166 279.206 210.006 279.574 210.894 279.765C211.782 279.957 212.7 279.968 213.592 279.8C214.485 279.632 215.335 279.286 216.092 278.785C216.849 278.283 217.498 277.635 218.001 276.878C218.504 276.122 218.85 275.272 219.02 274.38L220.74 266.38C221.24 266.31 221.74 266.22 222.23 266.11L227.52 273.11C228.028 273.889 228.689 274.555 229.464 275.069C230.239 275.582 231.111 275.932 232.026 276.095C232.941 276.259 233.88 276.234 234.785 276.021C235.69 275.808 236.542 275.412 237.288 274.857C238.034 274.302 238.659 273.601 239.123 272.796C239.588 271.991 239.883 271.099 239.99 270.175C240.097 269.252 240.014 268.316 239.746 267.426C239.477 266.536 239.03 265.71 238.43 265L233.73 258.75C234.03 258.34 234.32 257.92 234.59 257.48L243.12 259.33C243.993 259.52 244.895 259.535 245.775 259.376C246.654 259.217 247.494 258.886 248.245 258.402C248.996 257.918 249.645 257.291 250.154 256.556C250.662 255.821 251.021 254.994 251.21 254.12C251.404 253.245 251.423 252.339 251.266 251.457C251.109 250.574 250.779 249.731 250.294 248.976C249.81 248.221 249.181 247.57 248.444 247.059C247.707 246.548 246.877 246.188 246 246Z" fill="#FFC1EB"/>
<path d="M246 246L237.39 244.13C237.32 243.66 237.23 243.13 237.12 242.72L244.64 238.5C246.059 237.545 247.066 236.091 247.462 234.427C247.857 232.763 247.613 231.012 246.776 229.52C245.94 228.028 244.573 226.906 242.947 226.376C241.321 225.846 239.555 225.948 238 226.66L230.09 231.1C229.96 231.17 229.86 231.26 229.74 231.34C229.36 231.06 228.97 230.79 228.57 230.54L230.31 222.49C230.691 220.726 230.355 218.884 229.377 217.367C228.399 215.851 226.859 214.786 225.095 214.405C223.331 214.024 221.489 214.36 219.972 215.338C218.456 216.316 217.391 217.856 217.01 219.62L215.27 227.62C214.597 227.71 213.929 227.837 213.27 228C213.127 227.732 212.97 227.472 212.8 227.22L207.34 220C206.254 218.56 204.64 217.61 202.854 217.36C201.068 217.109 199.255 217.579 197.815 218.665C196.375 219.751 195.425 221.365 195.175 223.151C194.924 224.937 195.394 226.75 196.48 228.19L201.94 235.44C201.94 235.5 202.04 235.54 202.09 235.6C201.9 235.86 201.74 236.13 201.56 236.39L193.23 234.59C191.466 234.21 189.624 234.545 188.107 235.522C186.591 236.498 185.523 238.037 185.14 239.8C184.95 240.673 184.935 241.575 185.094 242.455C185.253 243.334 185.584 244.174 186.068 244.925C186.552 245.676 187.179 246.325 187.914 246.834C188.649 247.342 189.476 247.701 190.35 247.89L198.61 249.68C198.61 249.88 198.66 250.08 198.69 250.28H198.62L190.7 254.72C189.196 255.639 188.106 257.105 187.66 258.81C187.214 260.515 187.447 262.327 188.31 263.864C189.172 265.402 190.597 266.545 192.285 267.053C193.973 267.561 195.792 267.395 197.36 266.59L205.28 262.15C205.34 262.15 205.38 262.07 205.44 262.04C206.075 262.571 206.743 263.062 207.44 263.51L205.71 271.51C205.497 272.393 205.462 273.31 205.609 274.206C205.755 275.103 206.08 275.961 206.563 276.73C207.046 277.499 207.678 278.164 208.422 278.685C209.166 279.206 210.006 279.574 210.894 279.765C211.782 279.957 212.7 279.968 213.592 279.8C214.485 279.632 215.335 279.286 216.092 278.785C216.849 278.283 217.498 277.635 218.001 276.878C218.504 276.122 218.85 275.272 219.02 274.38L220.74 266.38C221.24 266.31 221.74 266.22 222.23 266.11L227.52 273.11C228.028 273.889 228.689 274.555 229.464 275.069C230.239 275.582 231.111 275.932 232.026 276.095C232.941 276.259 233.88 276.234 234.785 276.021C235.69 275.808 236.542 275.412 237.288 274.857C238.034 274.302 238.659 273.601 239.123 272.796C239.588 271.991 239.883 271.099 239.99 270.175C240.097 269.252 240.014 268.316 239.746 267.426C239.477 266.536 239.03 265.71 238.43 265L233.73 258.75C234.03 258.34 234.32 257.92 234.59 257.48L243.12 259.33C243.993 259.52 244.895 259.535 245.775 259.376C246.654 259.217 247.494 258.886 248.245 258.402C248.996 257.918 249.645 257.291 250.154 256.556C250.662 255.821 251.021 254.994 251.21 254.12C251.404 253.245 251.423 252.339 251.266 251.457C251.109 250.574 250.779 249.731 250.294 248.976C249.81 248.221 249.181 247.57 248.444 247.059C247.707 246.548 246.877 246.188 246 246Z" fill="#FFC1EB"/>
<path d="M246 246L237.39 244.13C237.32 243.66 237.23 243.13 237.12 242.72L244.64 238.5C246.059 237.545 247.066 236.091 247.462 234.427C247.857 232.763 247.613 231.012 246.776 229.52C245.94 228.028 244.573 226.906 242.947 226.376C241.321 225.846 239.555 225.948 238 226.66L230.09 231.1C229.96 231.17 229.86 231.26 229.74 231.34C229.36 231.06 228.97 230.79 228.57 230.54L230.31 222.49C230.691 220.726 230.355 218.884 229.377 217.367C228.399 215.851 226.859 214.786 225.095 214.405C223.331 214.024 221.489 214.36 219.972 215.338C218.456 216.316 217.391 217.856 217.01 219.62L215.27 227.62C214.597 227.71 213.929 227.837 213.27 228C213.127 227.732 212.97 227.472 212.8 227.22L207.34 220C206.254 218.56 204.64 217.61 202.854 217.36C201.068 217.109 199.255 217.579 197.815 218.665C196.375 219.751 195.425 221.365 195.175 223.151C194.924 224.937 195.394 226.75 196.48 228.19L201.94 235.44C201.94 235.5 202.04 235.54 202.09 235.6C201.9 235.86 201.74 236.13 201.56 236.39L193.23 234.59C191.466 234.21 189.624 234.545 188.107 235.522C186.591 236.498 185.523 238.037 185.14 239.8C184.95 240.673 184.935 241.575 185.094 242.455C185.253 243.334 185.584 244.174 186.068 244.925C186.552 245.676 187.179 246.325 187.914 246.834C188.649 247.342 189.476 247.701 190.35 247.89L198.61 249.68C198.61 249.88 198.66 250.08 198.69 250.28H198.62L190.7 254.72C189.196 255.639 188.106 257.105 187.66 258.81C187.214 260.515 187.447 262.327 188.31 263.864C189.172 265.402 190.597 266.545 192.285 267.053C193.973 267.561 195.792 267.395 197.36 266.59L205.28 262.15C205.34 262.15 205.38 262.07 205.44 262.04C206.075 262.571 206.743 263.062 207.44 263.51L205.71 271.51C205.497 272.393 205.462 273.31 205.609 274.206C205.755 275.103 206.08 275.961 206.563 276.73C207.046 277.499 207.678 278.164 208.422 278.685C209.166 279.206 210.006 279.574 210.894 279.765C211.782 279.957 212.7 279.968 213.592 279.8C214.485 279.632 215.335 279.286 216.092 278.785C216.849 278.283 217.498 277.635 218.001 276.878C218.504 276.122 218.85 275.272 219.02 274.38L220.74 266.38C221.24 266.31 221.74 266.22 222.23 266.11L227.52 273.11C228.028 273.889 228.689 274.555 229.464 275.069C230.239 275.582 231.111 275.932 232.026 276.095C232.941 276.259 233.88 276.234 234.785 276.021C235.69 275.808 236.542 275.412 237.288 274.857C238.034 274.302 238.659 273.601 239.123 272.796C239.588 271.991 239.883 271.099 239.99 270.175C240.097 269.252 240.014 268.316 239.746 267.426C239.477 266.536 239.03 265.71 238.43 265L233.73 258.75C234.03 258.34 234.32 257.92 234.59 257.48L243.12 259.33C243.993 259.52 244.895 259.535 245.775 259.376C246.654 259.217 247.494 258.886 248.245 258.402C248.996 257.918 249.645 257.291 250.154 256.556C250.662 255.821 251.021 254.994 251.21 254.12C251.404 253.245 251.423 252.339 251.266 251.457C251.109 250.574 250.779 249.731 250.294 248.976C249.81 248.221 249.181 247.57 248.444 247.059C247.707 246.548 246.877 246.188 246 246Z" fill="#FFC1EB"/>
<path d="M246 246L237.39 244.13C237.32 243.66 237.23 243.13 237.12 242.72L244.64 238.5C246.059 237.545 247.066 236.091 247.462 234.427C247.857 232.763 247.613 231.012 246.776 229.52C245.94 228.028 244.573 226.906 242.947 226.376C241.321 225.846 239.555 225.948 238 226.66L230.09 231.1C229.96 231.17 229.86 231.26 229.74 231.34C229.36 231.06 228.97 230.79 228.57 230.54L230.31 222.49C230.691 220.726 230.355 218.884 229.377 217.367C228.399 215.851 226.859 214.786 225.095 214.405C223.331 214.024 221.489 214.36 219.972 215.338C218.456 216.316 217.391 217.856 217.01 219.62L215.27 227.62C214.597 227.71 213.929 227.837 213.27 228C213.127 227.732 212.97 227.472 212.8 227.22L207.34 220C206.254 218.56 204.64 217.61 202.854 217.36C201.068 217.109 199.255 217.579 197.815 218.665C196.375 219.751 195.425 221.365 195.175 223.151C194.924 224.937 195.394 226.75 196.48 228.19L201.94 235.44C201.94 235.5 202.04 235.54 202.09 235.6C201.9 235.86 201.74 236.13 201.56 236.39L193.23 234.59C191.466 234.21 189.624 234.545 188.107 235.522C186.591 236.498 185.523 238.037 185.14 239.8C184.95 240.673 184.935 241.575 185.094 242.455C185.253 243.334 185.584 244.174 186.068 244.925C186.552 245.676 187.179 246.325 187.914 246.834C188.649 247.342 189.476 247.701 190.35 247.89L198.61 249.68C198.61 249.88 198.66 250.08 198.69 250.28H198.62L190.7 254.72C189.196 255.639 188.106 257.105 187.66 258.81C187.214 260.515 187.447 262.327 188.31 263.864C189.172 265.402 190.597 266.545 192.285 267.053C193.973 267.561 195.792 267.395 197.36 266.59L205.28 262.15C205.34 262.15 205.38 262.07 205.44 262.04C206.075 262.571 206.743 263.062 207.44 263.51L205.71 271.51C205.497 272.393 205.462 273.31 205.609 274.206C205.755 275.103 206.08 275.961 206.563 276.73C207.046 277.499 207.678 278.164 208.422 278.685C209.166 279.206 210.006 279.574 210.894 279.765C211.782 279.957 212.7 279.968 213.592 279.8C214.485 279.632 215.335 279.286 216.092 278.785C216.849 278.283 217.498 277.635 218.001 276.878C218.504 276.122 218.85 275.272 219.02 274.38L220.74 266.38C221.24 266.31 221.74 266.22 222.23 266.11L227.52 273.11C228.028 273.889 228.689 274.555 229.464 275.069C230.239 275.582 231.111 275.932 232.026 276.095C232.941 276.259 233.88 276.234 234.785 276.021C235.69 275.808 236.542 275.412 237.288 274.857C238.034 274.302 238.659 273.601 239.123 272.796C239.588 271.991 239.883 271.099 239.99 270.175C240.097 269.252 240.014 268.316 239.746 267.426C239.477 266.536 239.03 265.71 238.43 265L233.73 258.75C234.03 258.34 234.32 257.92 234.59 257.48L243.12 259.33C243.993 259.52 244.895 259.535 245.775 259.376C246.654 259.217 247.494 258.886 248.245 258.402C248.996 257.918 249.645 257.291 250.154 256.556C250.662 255.821 251.021 254.994 251.21 254.12C251.404 253.245 251.423 252.339 251.266 251.457C251.109 250.574 250.779 249.731 250.294 248.976C249.81 248.221 249.181 247.57 248.444 247.059C247.707 246.548 246.877 246.188 246 246Z" fill="#FFC1EB"/>
<path d="M246 246L237.39 244.13C237.32 243.66 237.23 243.13 237.12 242.72L244.64 238.5C246.059 237.545 247.066 236.091 247.462 234.427C247.857 232.763 247.613 231.012 246.776 229.52C245.94 228.028 244.573 226.906 242.947 226.376C241.321 225.846 239.555 225.948 238 226.66L230.09 231.1C229.96 231.17 229.86 231.26 229.74 231.34C229.36 231.06 228.97 230.79 228.57 230.54L230.31 222.49C230.691 220.726 230.355 218.884 229.377 217.367C228.399 215.851 226.859 214.786 225.095 214.405C223.331 214.024 221.489 214.36 219.972 215.338C218.456 216.316 217.391 217.856 217.01 219.62L215.27 227.62C214.597 227.71 213.929 227.837 213.27 228C213.127 227.732 212.97 227.472 212.8 227.22L207.34 220C206.254 218.56 204.64 217.61 202.854 217.36C201.068 217.109 199.255 217.579 197.815 218.665C196.375 219.751 195.425 221.365 195.175 223.151C194.924 224.937 195.394 226.75 196.48 228.19L201.94 235.44C201.94 235.5 202.04 235.54 202.09 235.6C201.9 235.86 201.74 236.13 201.56 236.39L193.23 234.59C191.466 234.21 189.624 234.545 188.107 235.522C186.591 236.498 185.523 238.037 185.14 239.8C184.95 240.673 184.935 241.575 185.094 242.455C185.253 243.334 185.584 244.174 186.068 244.925C186.552 245.676 187.179 246.325 187.914 246.834C188.649 247.342 189.476 247.701 190.35 247.89L198.61 249.68C198.61 249.88 198.66 250.08 198.69 250.28H198.62L190.7 254.72C189.196 255.639 188.106 257.105 187.66 258.81C187.214 260.515 187.447 262.327 188.31 263.864C189.172 265.402 190.597 266.545 192.285 267.053C193.973 267.561 195.792 267.395 197.36 266.59L205.28 262.15C205.34 262.15 205.38 262.07 205.44 262.04C206.075 262.571 206.743 263.062 207.44 263.51L205.71 271.51C205.497 272.393 205.462 273.31 205.609 274.206C205.755 275.103 206.08 275.961 206.563 276.73C207.046 277.499 207.678 278.164 208.422 278.685C209.166 279.206 210.006 279.574 210.894 279.765C211.782 279.957 212.7 279.968 213.592 279.8C214.485 279.632 215.335 279.286 216.092 278.785C216.849 278.283 217.498 277.635 218.001 276.878C218.504 276.122 218.85 275.272 219.02 274.38L220.74 266.38C221.24 266.31 221.74 266.22 222.23 266.11L227.52 273.11C228.028 273.889 228.689 274.555 229.464 275.069C230.239 275.582 231.111 275.932 232.026 276.095C232.941 276.259 233.88 276.234 234.785 276.021C235.69 275.808 236.542 275.412 237.288 274.857C238.034 274.302 238.659 273.601 239.123 272.796C239.588 271.991 239.883 271.099 239.99 270.175C240.097 269.252 240.014 268.316 239.746 267.426C239.477 266.536 239.03 265.71 238.43 265L233.73 258.75C234.03 258.34 234.32 257.92 234.59 257.48L243.12 259.33C243.993 259.52 244.895 259.535 245.775 259.376C246.654 259.217 247.494 258.886 248.245 258.402C248.996 257.918 249.645 257.291 250.154 256.556C250.662 255.821 251.021 254.994 251.21 254.12C251.404 253.245 251.423 252.339 251.266 251.457C251.109 250.574 250.779 249.731 250.294 248.976C249.81 248.221 249.181 247.57 248.444 247.059C247.707 246.548 246.877 246.188 246 246Z" fill="#FFC1EB"/>
<path d="M218.18 256.03C223.156 256.03 227.19 251.996 227.19 247.02C227.19 242.044 223.156 238.01 218.18 238.01C213.204 238.01 209.17 242.044 209.17 247.02C209.17 251.996 213.204 256.03 218.18 256.03Z" fill="white"/>
<path d="M202.876 317.865C207.64 317.052 210.964 313.242 210.301 309.355C209.638 305.468 205.239 302.976 200.475 303.788C195.711 304.601 192.387 308.411 193.05 312.298C193.713 316.185 198.112 318.677 202.876 317.865Z" fill="black"/>
<path d="M190.93 365.67C190.498 365.668 190.077 365.526 189.732 365.265C189.388 365.004 189.137 364.638 189.017 364.222C188.898 363.807 188.916 363.363 189.07 362.959C189.224 362.555 189.505 362.211 189.87 361.98C194.926 358.806 200.693 356.943 206.65 356.56C214.025 356.147 221.351 357.992 227.65 361.85C228.093 362.131 228.408 362.576 228.527 363.087C228.646 363.599 228.558 364.136 228.284 364.584C228.01 365.032 227.57 365.354 227.06 365.48C226.551 365.606 226.012 365.527 225.56 365.26C219.958 361.834 213.446 360.194 206.89 360.56C201.604 360.9 196.486 362.553 192 365.37C191.678 365.567 191.307 365.67 190.93 365.67Z" fill="black"/>
</g>
<defs>
<clipPath id="clip0_209_2">
<rect width="781" height="757" fill="white"/>
</clipPath>
</defs>
</svg>
