<svg width="779" height="562" viewBox="0 0 779 562" fill="none" xmlns="http://www.w3.org/2000/svg">
<g clip-path="url(#clip0_209_73)">
<path d="M320.407 102.807L60.8538 560.161H730.034L483.823 102.807H320.407Z" fill="#6DC8C2"/>
<path d="M538.142 303.9C541.713 296.663 543.592 288.709 543.636 280.639C543.68 272.569 541.889 264.594 538.398 257.319C534.906 250.043 529.806 243.656 523.483 238.642C517.16 233.627 509.779 230.116 501.899 228.374C498.505 227.631 495.408 225.898 492.999 223.395V223.354C488.386 218.529 487.596 214.201 481.051 201.088C480.35 199.67 479.764 198.529 479.421 197.877L424.906 219.018L439.682 264.193C436.643 273.732 436.355 283.935 438.852 293.63C441.349 303.325 446.528 312.119 453.797 319.004C461.065 325.888 470.127 330.584 479.943 332.551C489.759 334.519 499.931 333.678 509.291 330.127C509.739 334.601 511.42 338.863 514.148 342.437C516.876 346.011 520.543 348.757 524.74 350.369C528.938 351.981 533.5 352.395 537.919 351.565C542.338 350.736 546.44 348.695 549.767 345.671C553.094 342.646 555.516 338.757 556.762 334.437C558.007 330.117 558.029 325.536 556.823 321.204C555.618 316.872 553.233 312.961 549.934 309.906C546.636 306.85 542.553 304.771 538.142 303.9Z" fill="black"/>
<path d="M377.742 331.406C392.434 331.406 404.344 319.497 404.344 304.805C404.344 290.113 392.434 278.203 377.742 278.203C363.05 278.203 351.14 290.113 351.14 304.805C351.14 319.497 363.05 331.406 377.742 331.406Z" fill="black"/>
<path d="M463.301 234.544C463.325 229.865 461.506 225.364 458.238 222.016C454.969 218.669 450.514 216.742 445.835 216.654L444.735 204.674C444.412 200.875 443.342 197.176 441.587 193.791C439.832 190.406 437.427 187.4 434.508 184.946C431.589 182.493 428.215 180.639 424.579 179.491C420.942 178.344 417.115 177.925 413.317 178.26L369.185 182.376C363.407 182.949 358.092 185.789 354.406 190.275C350.719 194.76 348.962 200.525 349.519 206.304L354.409 260.208C354.794 264.734 356.069 269.14 358.161 273.173C360.252 277.206 363.118 280.786 366.595 283.709C370.073 286.632 374.093 288.841 378.425 290.208C382.757 291.575 387.316 292.073 391.842 291.675L393.887 291.48L396.65 321.358L454.947 315.93L451.687 280.542H451.638L449.046 252.091C453.082 251.259 456.706 249.058 459.304 245.86C461.902 242.662 463.314 238.664 463.301 234.544Z" fill="white"/>
<path d="M445.403 243.069C444.035 243.069 442.697 242.663 441.559 241.903C440.421 241.142 439.534 240.062 439.011 238.797C438.487 237.533 438.35 236.142 438.617 234.799C438.884 233.457 439.543 232.224 440.511 231.257C441.478 230.289 442.711 229.63 444.053 229.363C445.396 229.096 446.787 229.233 448.051 229.757C449.316 230.28 450.396 231.167 451.156 232.305C451.917 233.443 452.323 234.781 452.323 236.149C452.32 237.984 451.591 239.742 450.294 241.04C448.996 242.337 447.238 243.066 445.403 243.069ZM445.403 232.474C444.68 232.474 443.972 232.688 443.37 233.09C442.768 233.492 442.299 234.064 442.022 234.733C441.745 235.401 441.673 236.137 441.814 236.847C441.955 237.557 442.304 238.209 442.816 238.721C443.327 239.232 443.979 239.581 444.689 239.722C445.399 239.863 446.135 239.791 446.804 239.514C447.472 239.237 448.044 238.768 448.446 238.166C448.848 237.564 449.063 236.857 449.063 236.133C449.056 235.166 448.668 234.241 447.983 233.558C447.297 232.876 446.37 232.492 445.403 232.49V232.474Z" fill="black"/>
<path d="M393.765 291.529L428.476 287.217C428.699 287.189 428.925 287.241 429.113 287.365C429.301 287.489 429.439 287.675 429.502 287.891C429.565 288.107 429.548 288.339 429.456 288.544C429.363 288.749 429.201 288.914 428.997 289.01L395.02 305.245L393.765 291.529Z" fill="black"/>
<path d="M440.301 239.157C439.919 239.164 439.546 239.037 439.248 238.797C438.95 238.557 438.746 238.22 438.671 237.844C438.297 235.996 438.415 234.081 439.012 232.291C439.61 230.502 440.667 228.901 442.078 227.649C443.441 226.499 445.059 225.693 446.798 225.297C448.536 224.901 450.344 224.928 452.07 225.375C452.486 225.491 452.839 225.767 453.051 226.143C453.263 226.519 453.318 226.964 453.203 227.38C453.087 227.796 452.811 228.149 452.435 228.361C452.059 228.573 451.614 228.628 451.198 228.513C449.999 228.211 448.746 228.196 447.54 228.468C446.333 228.739 445.208 229.291 444.254 230.078C443.272 230.95 442.537 232.065 442.123 233.311C441.708 234.557 441.628 235.89 441.891 237.176C441.933 237.387 441.934 237.603 441.893 237.814C441.852 238.025 441.769 238.225 441.65 238.404C441.532 238.582 441.379 238.736 441.2 238.855C441.022 238.975 440.822 239.058 440.611 239.1C440.509 239.126 440.406 239.145 440.301 239.157Z" fill="black"/>
<path d="M359.918 239.955C361.822 239.955 363.365 238.412 363.365 236.508C363.365 234.604 361.822 233.06 359.918 233.06C358.014 233.06 356.47 234.604 356.47 236.508C356.47 238.412 358.014 239.955 359.918 239.955Z" fill="black"/>
<path d="M396.699 235.693C398.603 235.693 400.146 234.149 400.146 232.245C400.146 230.341 398.603 228.798 396.699 228.798C394.795 228.798 393.251 230.341 393.251 232.245C393.251 234.149 394.795 235.693 396.699 235.693Z" fill="black"/>
<path d="M374.857 250.257C374.728 250.257 374.599 250.241 374.474 250.208C371.874 249.581 369.184 248.635 368.997 246.459C368.978 245.634 369.285 244.834 369.853 244.234C370.016 244.022 370.203 243.778 370.407 243.46C371.168 242.24 371.553 240.822 371.515 239.385L371.442 224.356C371.442 223.924 371.614 223.509 371.919 223.204C372.225 222.898 372.64 222.726 373.072 222.726C373.504 222.726 373.919 222.898 374.225 223.204C374.53 223.509 374.702 223.924 374.702 224.356L374.775 239.385C374.797 241.427 374.231 243.433 373.145 245.163C372.885 245.563 372.673 245.856 372.485 246.1C373.35 246.521 374.265 246.83 375.207 247.021C375.6 247.111 375.946 247.342 376.178 247.671C376.41 248 376.512 248.404 376.464 248.803C376.417 249.203 376.223 249.571 375.92 249.837C375.617 250.102 375.227 250.246 374.824 250.241L374.857 250.257Z" fill="black"/>
<path d="M380.464 264.609C378.261 264.578 376.092 264.066 374.107 263.109C373.722 262.912 373.432 262.569 373.3 262.157C373.168 261.745 373.204 261.298 373.402 260.913C373.6 260.528 373.942 260.238 374.354 260.106C374.766 259.973 375.214 260.01 375.599 260.208C375.647 260.208 379.405 262.115 382.795 261.023C383.72 260.687 384.567 260.166 385.285 259.492C386.002 258.818 386.575 258.005 386.968 257.103C387.056 256.899 387.185 256.716 387.346 256.564C387.507 256.412 387.698 256.294 387.907 256.218C388.115 256.142 388.337 256.11 388.558 256.123C388.78 256.136 388.996 256.194 389.194 256.293C389.393 256.392 389.569 256.531 389.711 256.701C389.854 256.871 389.961 257.068 390.025 257.28C390.089 257.493 390.109 257.716 390.083 257.936C390.058 258.157 389.988 258.369 389.877 258.562C389.298 259.857 388.459 261.02 387.412 261.978C386.365 262.935 385.131 263.667 383.789 264.128C382.713 264.462 381.591 264.625 380.464 264.609Z" fill="black"/>
<path d="M453.31 298.837L394.326 304.278L396.83 331.424L455.814 325.984L453.31 298.837Z" fill="#C7B8F8"/>
<path d="M370.024 184.446C375.207 184.038 380.154 188.301 383.064 192.09C387.954 198.48 390.016 206.271 393.781 213.28C401.255 227.135 419.454 228.871 432.714 223.101L482.673 204.462C481.435 200.477 475.029 177.942 452.119 167.037C441.519 162.079 429.695 160.345 418.117 162.049L376.071 164.25C371.177 164.47 366.415 165.907 362.216 168.431C354.612 173.117 346.299 183.101 349.242 204.185C349.912 199.001 352.348 194.207 356.139 190.609C359.93 187.011 364.845 184.828 370.057 184.429L370.024 184.446Z" fill="black"/>
<path d="M352.811 324.202C352.811 324.202 333.903 326.851 321.483 364.805C318.41 374.194 315.15 383.485 311.385 392.646L285.9 450.462L304.457 530.242L346.063 503.184L332.167 467.251C324.36 448.506 322.061 427.381 327.954 407.968L352.811 324.202Z" fill="white"/>
<path d="M515.819 478.416L342.656 498.702C334.889 479.443 333.398 477.675 325.639 458.432C319.291 442.706 318.467 425.291 323.3 409.035L347.53 327.82C348.062 326.017 349.148 324.426 350.634 323.274C352.12 322.121 353.931 321.465 355.81 321.398L508.574 315.587C512.299 382.458 512.135 411.545 515.819 478.416Z" fill="#C7B8F8"/>
<mask id="mask0_209_73" style="mask-type:luminance" maskUnits="userSpaceOnUse" x="320" y="315" width="197" height="184">
<path d="M516.235 478.327L343.064 498.612C335.305 479.353 333.814 477.585 326.055 458.335C319.713 442.605 318.9 425.189 323.748 408.937C331.822 381.863 339.896 354.792 347.97 327.723C348.509 325.922 349.598 324.334 351.084 323.182C352.571 322.031 354.38 321.373 356.259 321.301L509.022 315.49C512.706 382.36 512.551 411.448 516.235 478.327Z" fill="white"/>
</mask>
<g mask="url(#mask0_209_73)">
<path d="M328.703 263.313C334.115 266.41 337.285 272.066 340.113 277.396C343.388 283.52 346.255 289.853 348.695 296.353C353.581 309.322 356.719 322.883 358.027 336.68C359.313 350.18 358.665 363.794 356.104 377.112C353.671 389.614 349.521 401.72 343.773 413.086C338.025 424.489 330.627 434.983 321.817 444.227C320.73 445.384 319.6 446.52 318.426 447.634C316.161 449.826 319.616 453.282 321.882 451.089C331.381 441.856 339.451 431.258 345.827 419.647C352.241 408.04 357.003 395.594 359.975 382.67C363.061 369.078 364.184 355.113 363.308 341.203C362.411 326.819 359.568 312.622 354.857 299.002C352.476 292.093 349.642 285.35 346.373 278.815C343.43 272.93 340.285 266.63 335.337 262.156C334.074 261 332.689 259.987 331.205 259.132C328.467 257.567 326.006 261.789 328.76 263.354L328.703 263.313Z" fill="white"/>
<path d="M451.491 546.485C450.882 527.973 454.473 509.563 461.997 492.638C469.466 475.626 480.62 460.486 494.654 448.31C501.989 442.01 510.4 435.718 520.065 433.803C524.35 432.932 528.794 433.288 532.885 434.83C534.563 435.519 536.165 436.376 537.669 437.389C539.184 438.427 540.59 439.615 541.867 440.934C547.498 446.639 551.272 454.3 553.961 461.798C557.547 471.839 559.911 482.426 561.818 492.899C565.864 515.126 566.892 537.797 564.874 560.299C564.624 563.119 564.325 565.934 563.978 568.743C563.815 570.055 565.216 571.188 566.423 571.188C567.067 571.173 567.68 570.911 568.135 570.455C568.591 570 568.853 569.386 568.868 568.743C571.71 545.369 571.315 521.715 567.694 498.449C565.986 487.168 563.478 476.024 560.188 465.099C557.604 456.607 554.035 448.237 548.558 441.195C543.203 434.292 535.779 429.28 526.92 428.514C516.17 427.593 506.015 433.347 497.726 439.581C482.239 451.309 469.623 466.406 460.831 483.73C451.949 501.017 447.069 520.08 446.552 539.509C446.495 541.831 446.552 544.146 446.601 546.469C446.707 549.606 451.597 549.623 451.491 546.469V546.485Z" fill="white"/>
<path d="M361.923 505.042C359.649 491.807 359.698 478.277 362.07 465.058C364.229 453.021 368.117 441.073 374.523 430.6C377.401 425.822 380.928 421.467 385.004 417.658C386.976 415.846 389.103 414.209 391.361 412.768C393.468 411.404 395.7 410.244 398.027 409.304C402.646 407.498 407.577 406.628 412.534 406.745C417.229 406.801 421.859 407.848 426.12 409.818C430.546 411.874 434.278 415.173 436.862 419.312C439.886 424.243 441.084 430.282 439.307 435.71C438.523 438.081 437.188 440.231 435.411 441.986C433.684 443.681 431.279 445.246 428.737 445.466C427.677 445.542 426.613 445.369 425.633 444.96C424.652 444.551 423.78 443.917 423.089 443.11C421.457 441.341 420.263 439.214 419.6 436.9C415.949 424.879 421.141 411.741 427.327 401.521C433.389 391.675 441.181 383.005 450.326 375.93C459.869 368.541 470.508 362.69 481.858 358.587C494.411 354.064 507.483 351.143 520.766 349.891C524.026 349.565 527.286 349.32 530.546 349.157C531.19 349.141 531.802 348.878 532.257 348.423C532.712 347.968 532.975 347.355 532.991 346.712C532.991 346.064 532.734 345.442 532.275 344.983C531.817 344.525 531.195 344.267 530.546 344.267C516.277 344.886 502.135 347.225 488.427 351.235C475.588 355.008 463.425 360.784 452.388 368.35C442.031 375.484 433.042 384.423 425.851 394.74C418.394 405.612 412.217 419.141 413.789 432.638C414.49 438.677 416.683 445.001 421.939 448.53C427.563 452.279 434.637 449.687 439.014 445.27C441.201 442.997 442.859 440.269 443.869 437.281C444.879 434.292 445.217 431.118 444.857 427.984C444.086 421.555 441.104 415.594 436.422 411.122C428.549 403.55 417.009 400.861 406.373 402.246C394.555 403.787 384.311 410.307 376.674 419.312C368.524 428.954 363.227 440.747 359.828 452.841C355.918 466.773 354.538 481.292 355.753 495.711C356.055 499.288 356.568 502.866 357.139 506.411C357.312 507.036 357.726 507.566 358.29 507.886C358.854 508.205 359.521 508.287 360.146 508.115C360.765 507.932 361.289 507.517 361.608 506.956C361.927 506.395 362.017 505.733 361.858 505.107L361.923 505.042Z" fill="white"/>
</g>
<path d="M605.966 470.886H606.056L593.66 442.035L567.58 381.276C563.825 372.54 560.071 363.797 556.317 355.05C551.198 343.142 547.026 330.257 536.235 322.14C522.38 311.732 501.434 309.589 487.156 320.339C475.004 329.483 471.671 346.093 471.891 360.551C472.184 376.941 477.596 392.882 484.719 407.47C492.054 422.499 498.085 438.147 504.825 453.461L515.827 478.449L350.798 497.748C345.323 498.383 339.979 499.86 334.954 502.125C328.027 505.26 320.98 508.628 313.813 512.231C309.613 514.339 305.511 516.463 301.507 518.604L311.865 560.169H547.27C593.554 560.169 624.133 512.703 605.966 470.886Z" fill="white"/>
<path d="M675.82 435.319H620.4C617.781 435.317 615.27 434.275 613.418 432.423C611.566 430.571 610.524 428.06 610.522 425.441V369.972C610.524 367.353 611.566 364.842 613.418 362.99C615.27 361.138 617.781 360.097 620.4 360.094H675.82C678.439 360.097 680.95 361.138 682.802 362.99C684.654 364.842 685.696 367.353 685.698 369.972V425.441C685.696 428.06 684.654 430.571 682.802 432.423C680.95 434.275 678.439 435.317 675.82 435.319ZM620.4 363.354C618.646 363.357 616.964 364.055 615.723 365.295C614.482 366.536 613.784 368.218 613.782 369.972V425.441C613.784 427.196 614.482 428.878 615.723 430.118C616.964 431.359 618.646 432.057 620.4 432.059H675.82C677.575 432.057 679.257 431.359 680.497 430.118C681.738 428.878 682.436 427.196 682.438 425.441V369.972C682.436 368.218 681.738 366.536 680.497 365.295C679.257 364.055 677.575 363.357 675.82 363.354H620.4Z" fill="black"/>
<path d="M764.215 318.627H588.102C584.211 318.627 580.48 317.082 577.728 314.331C574.977 311.579 573.432 307.848 573.432 303.957V166.385C573.432 162.495 574.977 158.763 577.728 156.012C580.48 153.261 584.211 151.715 588.102 151.715H764.215C768.106 151.715 771.837 153.261 774.588 156.012C777.339 158.763 778.885 162.495 778.885 166.385V303.974C778.881 307.862 777.333 311.589 774.583 314.336C771.832 317.084 768.103 318.627 764.215 318.627ZM588.102 154.992C585.076 154.992 582.173 156.194 580.034 158.334C577.894 160.473 576.692 163.376 576.692 166.402V303.974C576.692 307 577.894 309.902 580.034 312.042C582.173 314.181 585.076 315.384 588.102 315.384H764.215C767.241 315.384 770.143 314.181 772.283 312.042C774.423 309.902 775.625 307 775.625 303.974V166.385C775.625 163.359 774.423 160.457 772.283 158.317C770.143 156.177 767.241 154.975 764.215 154.975L588.102 154.992Z" fill="black"/>
<path d="M667.882 183.949H604.964C600.895 183.949 597.596 187.247 597.596 191.316V287.299C597.596 291.368 600.895 294.666 604.964 294.666H667.882C671.951 294.666 675.25 291.368 675.25 287.299V191.316C675.25 187.247 671.951 183.949 667.882 183.949Z" fill="#6DC8C2"/>
<path d="M719.463 187.372H703.074C700.814 187.372 698.982 189.203 698.982 191.463V207.853C698.982 210.112 700.814 211.944 703.074 211.944H719.463C721.723 211.944 723.555 210.112 723.555 207.853V191.463C723.555 189.203 721.723 187.372 719.463 187.372Z" fill="#FFC1EB"/>
<path d="M755.429 187.372H739.04C736.78 187.372 734.948 189.203 734.948 191.463V207.853C734.948 210.112 736.78 211.944 739.04 211.944H755.429C757.689 211.944 759.521 210.112 759.521 207.853V191.463C759.521 189.203 757.689 187.372 755.429 187.372Z" fill="#FFC1EB"/>
<path d="M759.512 232.188H700.547C700.115 232.188 699.7 232.017 699.395 231.711C699.089 231.405 698.917 230.991 698.917 230.558C698.917 230.126 699.089 229.711 699.395 229.406C699.7 229.1 700.115 228.928 700.547 228.928H759.512C759.945 228.928 760.359 229.1 760.665 229.406C760.971 229.711 761.142 230.126 761.142 230.558C761.142 230.991 760.971 231.405 760.665 231.711C760.359 232.017 759.945 232.188 759.512 232.188Z" fill="black"/>
<path d="M759.512 248.774H700.547C700.115 248.774 699.7 248.602 699.395 248.296C699.089 247.991 698.917 247.576 698.917 247.144C698.917 246.711 699.089 246.297 699.395 245.991C699.7 245.685 700.115 245.514 700.547 245.514H759.512C759.945 245.514 760.359 245.685 760.665 245.991C760.971 246.297 761.142 246.711 761.142 247.144C761.142 247.576 760.971 247.991 760.665 248.296C760.359 248.602 759.945 248.774 759.512 248.774Z" fill="black"/>
<path d="M741.876 266.492H700.547C700.115 266.492 699.7 266.32 699.395 266.014C699.089 265.709 698.917 265.294 698.917 264.862C698.917 264.429 699.089 264.015 699.395 263.709C699.7 263.403 700.115 263.232 700.547 263.232H741.876C742.308 263.232 742.723 263.403 743.028 263.709C743.334 264.015 743.506 264.429 743.506 264.862C743.506 265.294 743.334 265.709 743.028 266.014C742.723 266.32 742.308 266.492 741.876 266.492Z" fill="black"/>
<path d="M548.24 462.972C548.24 459.035 534.287 455.841 517.066 455.841C499.845 455.841 485.893 459.035 485.893 462.972L482.543 498.147C490.351 496.876 501.288 496.794 510.938 502.793C514.377 504.996 518.175 506.581 522.16 507.479C528.868 508.889 538.965 509.223 551.117 504.072L548.24 462.972Z" fill="white"/>
<path d="M530.954 510.006C527.885 510.009 524.823 509.698 521.818 509.076C517.653 508.135 513.683 506.481 510.082 504.186C500.709 498.384 490.073 498.579 482.804 499.761L480.717 500.103L484.271 462.89C484.45 456.036 505.77 454.219 517.066 454.219C528.362 454.219 549.731 456.02 549.87 462.907L552.82 505.124L551.745 505.572C545.185 508.439 538.112 509.948 530.954 510.006ZM490.856 495.825C498.222 495.693 505.478 497.627 511.801 501.407C515.076 503.508 518.692 505.022 522.486 505.882C528.452 507.137 537.898 507.626 549.381 503.013L546.61 462.972C546.61 461.652 537.727 457.471 517.066 457.471C496.406 457.471 487.523 461.652 487.523 462.972V463.127L484.36 496.24C486.515 495.966 488.684 495.827 490.856 495.825Z" fill="black"/>
<path d="M553.269 501.187C540.334 506.338 529.576 506.004 522.437 504.594C518.229 503.699 514.198 502.115 510.505 499.908C500.179 493.901 488.582 493.991 480.269 495.254L476.87 528.726C476.436 532.989 476.901 537.296 478.235 541.369C479.569 545.441 481.743 549.188 484.615 552.368C487.488 555.548 490.996 558.09 494.912 559.829C498.828 561.569 503.066 562.468 507.351 562.467H524.817C529.032 562.467 533.202 561.598 537.066 559.913C540.93 558.229 544.405 555.765 547.274 552.676C550.142 549.587 552.343 545.94 553.737 541.962C555.132 537.984 555.691 533.761 555.379 529.557L553.269 501.187Z" fill="#FFBB45"/>
<path d="M514.589 541.318H514.442C514.012 541.279 513.615 541.07 513.338 540.739C513.062 540.407 512.928 539.979 512.967 539.549L523.113 427.242C523.259 425.536 524.042 423.947 525.306 422.792C526.57 421.636 528.223 420.999 529.935 421.008H554.075C554.508 421.008 554.922 421.179 555.228 421.485C555.534 421.791 555.705 422.205 555.705 422.638C555.705 423.07 555.534 423.485 555.228 423.79C554.922 424.096 554.508 424.268 554.075 424.268H529.935C529.039 424.266 528.175 424.6 527.513 425.203C526.851 425.806 526.439 426.636 526.357 427.528L516.21 539.835C516.174 540.24 515.987 540.616 515.687 540.891C515.387 541.165 514.995 541.317 514.589 541.318Z" fill="black"/>
<path d="M517.001 471.505C516.064 471.505 515.127 471.505 514.197 471.456C504.164 471.077 494.308 468.697 485.208 464.455C485.014 464.365 484.839 464.237 484.694 464.079C484.549 463.921 484.437 463.736 484.364 463.535C484.29 463.334 484.257 463.12 484.266 462.906C484.276 462.692 484.327 462.482 484.417 462.287C484.508 462.093 484.636 461.919 484.794 461.774C484.951 461.629 485.136 461.517 485.338 461.443C485.539 461.37 485.753 461.337 485.967 461.346C486.181 461.355 486.391 461.406 486.585 461.497C495.283 465.555 504.704 467.833 514.295 468.196C525.746 468.608 537.133 466.312 547.531 461.497C547.725 461.405 547.936 461.353 548.151 461.343C548.366 461.333 548.58 461.366 548.782 461.44C548.984 461.513 549.17 461.626 549.328 461.771C549.486 461.917 549.614 462.092 549.705 462.287C549.795 462.482 549.846 462.693 549.854 462.908C549.863 463.123 549.828 463.337 549.754 463.538C549.679 463.74 549.565 463.925 549.418 464.082C549.272 464.239 549.096 464.366 548.9 464.455C538.9 469.079 528.018 471.484 517.001 471.505Z" fill="black"/>
<path d="M413.969 321.993C413.553 321.994 413.152 321.836 412.849 321.551C412.546 321.266 412.364 320.876 412.339 320.461L411.377 303.884C411.352 303.452 411.5 303.027 411.788 302.704C412.076 302.381 412.481 302.185 412.913 302.16C413.346 302.135 413.77 302.283 414.093 302.571C414.417 302.86 414.612 303.264 414.637 303.697L415.599 320.265C415.612 320.48 415.583 320.694 415.513 320.897C415.443 321.1 415.334 321.287 415.191 321.448C415.049 321.608 414.876 321.739 414.683 321.833C414.49 321.926 414.281 321.981 414.066 321.993H413.969Z" fill="black"/>
<path d="M430.497 320.787C430.081 320.788 429.681 320.63 429.378 320.345C429.075 320.06 428.892 319.67 428.867 319.255L427.905 302.678C427.893 302.464 427.923 302.249 427.994 302.047C428.064 301.844 428.174 301.658 428.316 301.498C428.459 301.338 428.632 301.207 428.825 301.114C429.018 301.021 429.228 300.966 429.442 300.954C429.656 300.942 429.87 300.972 430.072 301.042C430.275 301.113 430.462 301.222 430.622 301.365C430.782 301.508 430.912 301.681 431.005 301.874C431.099 302.067 431.153 302.276 431.165 302.49L432.127 319.1C432.14 319.314 432.111 319.529 432.041 319.732C431.971 319.934 431.862 320.122 431.72 320.282C431.577 320.443 431.405 320.573 431.212 320.667C431.019 320.761 430.809 320.815 430.595 320.828L430.497 320.787Z" fill="black"/>
<path d="M261.678 324.063H88.7674C85.7413 324.063 82.8391 322.861 80.6993 320.721C78.5595 318.582 77.3574 315.68 77.3574 312.653V202.286C77.3574 199.26 78.5595 196.358 80.6993 194.218C82.8391 192.078 85.7413 190.876 88.7674 190.876H261.678C264.704 190.876 267.606 192.078 269.746 194.218C271.886 196.358 273.088 199.26 273.088 202.286V312.629C273.091 314.129 272.798 315.616 272.226 317.003C271.654 318.39 270.814 319.651 269.755 320.713C268.695 321.775 267.436 322.618 266.05 323.193C264.664 323.767 263.178 324.063 261.678 324.063ZM88.7674 194.112C86.6059 194.112 84.5329 194.97 83.0045 196.499C81.4761 198.027 80.6174 200.1 80.6174 202.262V312.629C80.6174 314.79 81.4761 316.863 83.0045 318.392C84.5329 319.92 86.6059 320.779 88.7674 320.779H261.678C263.839 320.779 265.912 319.92 267.441 318.392C268.969 316.863 269.828 314.79 269.828 312.629V202.286C269.828 200.125 268.969 198.052 267.441 196.523C265.912 194.995 263.839 194.136 261.678 194.136L88.7674 194.112Z" fill="black"/>
<path d="M246.144 274.348H172.908C169.402 274.348 166.559 277.191 166.559 280.697V283.004C166.559 286.51 169.402 289.353 172.908 289.353H246.144C249.65 289.353 252.493 286.51 252.493 283.004V280.697C252.493 277.191 249.65 274.348 246.144 274.348Z" fill="#FFBB45"/>
<path d="M248.907 236.377H170.145C169.713 236.377 169.298 236.206 168.993 235.9C168.687 235.594 168.515 235.18 168.515 234.747C168.515 234.315 168.687 233.901 168.993 233.595C169.298 233.289 169.713 233.117 170.145 233.117H248.907C249.339 233.117 249.754 233.289 250.059 233.595C250.365 233.901 250.537 234.315 250.537 234.747C250.537 235.18 250.365 235.594 250.059 235.9C249.754 236.206 249.339 236.377 248.907 236.377Z" fill="black"/>
<path d="M237.815 254.202H170.17C169.737 254.202 169.323 254.03 169.017 253.724C168.711 253.418 168.54 253.004 168.54 252.572C168.54 252.139 168.711 251.725 169.017 251.419C169.323 251.113 169.737 250.942 170.17 250.942H237.815C238.247 250.942 238.661 251.113 238.967 251.419C239.273 251.725 239.445 252.139 239.445 252.572C239.445 253.004 239.273 253.418 238.967 253.724C238.661 254.03 238.247 254.202 237.815 254.202Z" fill="black"/>
<path d="M433.252 562.092H301.507V533.608H433.252C435.072 533.608 436.817 534.331 438.104 535.618C439.391 536.905 440.114 538.65 440.114 540.47V555.222C440.115 556.124 439.938 557.017 439.594 557.85C439.249 558.684 438.744 559.441 438.107 560.079C437.47 560.718 436.713 561.224 435.88 561.569C435.046 561.915 434.153 562.092 433.252 562.092Z" fill="#001B43"/>
<path d="M316.381 562.092H161.971C159.093 562.119 156.283 561.216 153.959 559.517C151.636 557.818 149.924 555.414 149.077 552.663L111.27 424.48C108.825 416.175 115.255 407.902 124.163 407.902H269.787C272.792 407.868 275.72 408.85 278.095 410.691C280.47 412.532 282.152 415.123 282.868 418.041L316.381 562.092Z" fill="#001B43"/>
<path d="M204.237 518.547C216.052 518.547 225.63 508.968 225.63 497.153C225.63 485.338 216.052 475.759 204.237 475.759C192.421 475.759 182.843 485.338 182.843 497.153C182.843 508.968 192.421 518.547 204.237 518.547Z" fill="#FFC1EB"/>
<path d="M199.534 481.945C199.169 481.944 198.815 481.821 198.528 481.595C198.241 481.369 198.039 481.053 197.953 480.698L195.394 470.217C195.343 470.009 195.334 469.793 195.367 469.581C195.399 469.369 195.473 469.166 195.585 468.983C195.809 468.613 196.172 468.348 196.592 468.245C197.012 468.142 197.456 468.211 197.826 468.436C198.196 468.66 198.462 469.023 198.564 469.443L201.123 479.924C201.175 480.132 201.184 480.348 201.151 480.56C201.119 480.772 201.045 480.975 200.934 481.159C200.822 481.342 200.676 481.501 200.503 481.628C200.33 481.754 200.134 481.846 199.925 481.896C199.797 481.928 199.666 481.945 199.534 481.945Z" fill="#6DC8C2"/>
<path d="M730.034 561.799H83.9508C83.5185 561.799 83.1039 561.627 82.7982 561.321C82.4925 561.016 82.3208 560.601 82.3208 560.169C82.3208 559.737 82.4925 559.322 82.7982 559.016C83.1039 558.711 83.5185 558.539 83.9508 558.539H730.034C730.466 558.539 730.881 558.711 731.187 559.016C731.492 559.322 731.664 559.737 731.664 560.169C731.664 560.601 731.492 561.016 731.187 561.321C730.881 561.627 730.466 561.799 730.034 561.799Z" fill="black"/>
<path d="M402.11 124.005C396.62 124.013 391.251 122.393 386.682 119.348C382.113 116.304 378.55 111.973 376.443 106.903C374.336 101.832 373.781 96.2514 374.847 90.8656C375.913 85.4798 378.553 80.5313 382.432 76.6462C386.312 72.7611 391.256 70.1141 396.641 69.04C402.025 67.9659 407.607 68.5131 412.68 70.6123C417.753 72.7115 422.09 76.2683 425.141 80.8328C428.192 85.3973 429.82 90.7642 429.82 96.2545C429.81 103.604 426.888 110.65 421.695 115.851C416.502 121.052 409.46 123.984 402.11 124.005ZM402.11 71.7638C397.275 71.7638 392.547 73.1977 388.527 75.8843C384.506 78.5709 381.372 82.3895 379.522 86.8572C377.671 91.3248 377.187 96.2409 378.13 100.984C379.074 105.727 381.402 110.083 384.822 113.503C388.241 116.922 392.598 119.251 397.34 120.194C402.083 121.137 406.999 120.653 411.467 118.803C415.935 116.952 419.753 113.818 422.44 109.797C425.126 105.777 426.56 101.05 426.56 96.2138C426.543 89.7345 423.962 83.5256 419.38 78.944C414.799 74.3625 408.59 71.781 402.11 71.7638Z" fill="white"/>
<path d="M403.26 -0.339233H400.969C397.477 -0.339233 394.645 2.49229 394.645 5.98516V58.2593C394.645 61.7521 397.477 64.5837 400.969 64.5837H403.26C406.752 64.5837 409.584 61.7521 409.584 58.2593V5.98516C409.584 2.49229 406.752 -0.339233 403.26 -0.339233Z" fill="black"/>
<path d="M400.92 46.4744C383.667 46.7349 366.803 51.6411 352.102 60.6767C337.401 69.7123 325.407 82.5432 317.383 97.8194C317.107 98.3401 316.971 98.9234 316.988 99.5124C317.004 100.101 317.173 100.676 317.477 101.181C317.782 101.685 318.211 102.102 318.725 102.392C319.238 102.681 319.817 102.833 320.407 102.832H483.855C484.443 102.831 485.022 102.679 485.534 102.389C486.046 102.099 486.475 101.681 486.778 101.177C487.082 100.673 487.25 100.099 487.266 99.5104C487.282 98.9221 487.146 98.3395 486.87 97.8194C478.653 82.1829 466.282 69.1163 451.117 60.0574C435.953 50.9985 418.584 46.2984 400.92 46.4744Z" fill="#FFC1EB"/>
<path d="M351.907 87.1917C341.181 87.1917 332.436 79.9464 332.306 79.8567C331.975 79.5779 331.769 79.1791 331.732 78.7481C331.695 78.3171 331.831 77.8892 332.11 77.5585C332.389 77.2277 332.788 77.0213 333.219 76.9847C333.65 76.948 334.078 77.084 334.408 77.3628C335.126 77.9659 352.078 91.935 366.552 77.4606L367.538 76.4745L368.671 77.2895C369.486 77.8763 388.573 91.5357 402.665 77.4525L403.618 76.4908L404.743 77.2569C407.951 79.3151 411.463 80.8553 415.151 81.8209C422.771 83.7443 429.079 82.2773 433.896 77.4525L434.906 76.4419L436.039 77.3058C436.797 77.8845 454.841 91.3727 468.769 77.4525C469.079 77.171 469.485 77.0193 469.903 77.0289C470.322 77.0384 470.72 77.2085 471.017 77.5038C471.313 77.7992 471.484 78.1972 471.495 78.6155C471.506 79.0337 471.356 79.4402 471.076 79.7508C457.27 93.5569 439.804 83.7036 435.216 80.688C429.69 85.578 422.477 87.0614 414.254 84.9587C410.661 84.0072 407.218 82.5588 404.026 80.6554C390.171 93.2635 372.526 83.5976 367.897 80.6554C362.591 85.5373 357.025 87.1917 351.907 87.1917Z" fill="#FB6D6D"/>
<path d="M305.696 519.28C305.345 519.271 305.007 519.149 304.731 518.932C304.455 518.715 304.257 518.415 304.165 518.076C304.074 517.737 304.094 517.378 304.223 517.052C304.352 516.725 304.583 516.449 304.881 516.265C310.179 513.005 315.672 509.973 321.181 507.161C328.516 503.453 336.071 500.063 343.716 497.088C344.119 496.931 344.568 496.941 344.964 497.115C345.36 497.289 345.67 497.614 345.827 498.017C345.983 498.42 345.974 498.869 345.799 499.265C345.625 499.661 345.301 499.971 344.898 500.128C337.351 503.062 329.869 506.403 322.656 510.071C317.204 512.842 311.792 515.865 306.552 519.036C306.296 519.198 305.999 519.282 305.696 519.28Z" fill="black"/>
<path d="M95.3364 472.369L104.782 436.607H51.196L59.7046 472.76C50.0407 476.977 42.1318 484.405 37.3183 493.786C32.5048 503.167 31.0826 513.923 33.293 524.233C35.5033 534.542 41.21 543.77 49.4462 550.353C57.6823 556.937 67.9412 560.47 78.4844 560.354C89.0275 560.238 99.2064 556.481 107.296 549.718C115.386 542.956 120.888 533.605 122.872 523.249C124.855 512.894 123.197 502.171 118.179 492.898C113.161 483.625 105.091 476.372 95.3364 472.369Z" fill="white"/>
<path d="M77.985 561.97C67.2338 561.961 56.8058 558.293 48.4172 551.568C40.0286 544.843 34.1791 535.464 31.8312 524.972C29.4834 514.48 30.7771 503.502 35.4996 493.843C40.222 484.185 48.0917 476.421 57.8137 471.831L49.134 434.977H106.893L97.276 471.424C107.167 475.847 115.242 483.53 120.151 493.19C125.06 502.849 126.506 513.901 124.249 524.498C121.991 535.096 116.165 544.598 107.745 551.418C99.3253 558.238 88.8204 561.963 77.985 561.97ZM53.2497 438.237L61.6035 473.714L60.3565 474.252C51.0346 478.317 43.4051 485.481 38.761 494.529C34.1169 503.576 32.7439 513.951 34.8748 523.896C37.0056 533.84 42.5092 542.741 50.4527 549.092C58.3963 555.442 68.2912 558.851 78.4606 558.74C88.6299 558.629 98.4482 555.005 106.251 548.483C114.054 541.961 119.362 532.941 121.276 522.953C123.189 512.964 121.59 502.622 116.75 493.678C111.909 484.733 104.125 477.738 94.7169 473.877L93.3966 473.331L102.663 438.237H53.2497Z" fill="black"/>
<path d="M77.9686 441.048C93.9836 441.048 106.966 438.297 106.966 434.903C106.966 431.51 93.9836 428.758 77.9686 428.758C61.9537 428.758 48.9709 431.51 48.9709 434.903C48.9709 438.297 61.9537 441.048 77.9686 441.048Z" fill="black"/>
<path d="M70.0795 439.85C69.7468 439.849 69.4225 439.746 69.1501 439.555C68.8777 439.365 68.6702 439.095 68.5554 438.783C58.6613 411.806 38.213 389.883 38.0092 389.695C37.862 389.54 37.747 389.356 37.6706 389.156C37.5943 388.956 37.5581 388.743 37.5641 388.529C37.5702 388.314 37.6184 388.104 37.7059 387.908C37.7935 387.712 37.9187 387.536 38.0744 387.389C38.2301 387.242 38.4133 387.127 38.6135 387.05C38.8137 386.974 39.027 386.938 39.2411 386.944C39.4553 386.95 39.6662 386.998 39.8618 387.086C40.0573 387.173 40.2337 387.298 40.3809 387.454C40.5928 387.682 61.4894 410.046 71.6117 437.658C71.7518 438.059 71.7297 438.499 71.5501 438.885C71.3704 439.27 71.0474 439.57 70.65 439.72C70.4687 439.796 70.2757 439.84 70.0795 439.85Z" fill="black"/>
<path d="M83.1359 440.07C82.7036 440.07 82.289 439.899 81.9833 439.593C81.6776 439.287 81.5059 438.873 81.5059 438.44V415.099C81.5059 414.667 81.6776 414.252 81.9833 413.946C82.289 413.641 82.7036 413.469 83.1359 413.469C83.5682 413.469 83.9828 413.641 84.2884 413.946C84.5941 414.252 84.7659 414.667 84.7659 415.099V438.44C84.7659 438.873 84.5941 439.287 84.2884 439.593C83.9828 439.899 83.5682 440.07 83.1359 440.07Z" fill="black"/>
<path d="M47.4471 373.379H40.4951C40.3647 373.02 40.218 372.67 40.0632 372.328L45.1243 367.845C45.6602 367.384 46.0991 366.821 46.4155 366.188C46.7318 365.556 46.9194 364.867 46.9674 364.161C47.0153 363.456 46.9225 362.748 46.6946 362.079C46.4666 361.409 46.1079 360.792 45.6393 360.262C45.1708 359.733 44.6016 359.301 43.965 358.994C43.3284 358.686 42.637 358.508 41.9309 358.469C41.2248 358.431 40.5182 358.533 39.852 358.77C39.1858 359.007 38.5733 359.374 38.0501 359.85L32.72 364.569C32.6385 364.642 32.5733 364.732 32.4918 364.813C32.1577 364.659 31.8154 364.52 31.4649 364.39V357.927C31.411 356.546 30.8245 355.24 29.8285 354.282C28.8326 353.324 27.5044 352.789 26.1226 352.789C24.7408 352.789 23.4126 353.324 22.4166 354.282C21.4207 355.24 20.8342 356.546 20.7803 357.927V364.39C20.2863 364.571 19.8021 364.778 19.3296 365.009C19.1795 364.823 19.0161 364.649 18.8406 364.487L13.4697 359.85C12.3887 358.989 11.0161 358.579 9.63986 358.708C8.26361 358.837 6.99068 359.493 6.08817 360.54C5.18565 361.587 4.7237 362.943 4.79924 364.323C4.87478 365.703 5.48194 367.001 6.49332 367.943L11.8886 372.597C11.9313 372.634 11.9777 372.667 12.0272 372.694C11.9294 372.923 11.8479 373.159 11.7582 373.395H5.05892C3.65019 373.402 2.30111 373.965 1.30574 374.962C0.310368 375.959 -0.250596 377.309 -0.254883 378.717C-0.254884 380.134 0.307277 381.492 1.30816 382.495C2.30904 383.497 3.66683 384.061 5.08337 384.064H11.7175L11.8805 384.504H11.8316L6.49332 389.223C5.485 390.176 4.88675 391.484 4.82497 392.87C4.76319 394.256 5.24273 395.612 6.16226 396.651C7.08178 397.69 8.36926 398.331 9.75264 398.438C11.136 398.545 12.5069 398.111 13.5757 397.226L18.9058 392.507L19.0199 392.385C19.6027 392.699 20.2074 392.972 20.8292 393.2V399.606C20.8831 400.986 21.4696 402.293 22.4655 403.251C23.4615 404.208 24.7897 404.743 26.1715 404.743C27.5533 404.743 28.8815 404.208 29.8774 403.251C30.8734 402.293 31.4599 400.986 31.5138 399.606V393.265C31.8806 393.126 32.2473 392.98 32.6059 392.809L37.8382 397.316C38.9157 398.237 40.3153 398.694 41.7291 398.583C43.1429 398.473 44.4551 397.806 45.377 396.729C46.2989 395.651 46.7549 394.252 46.6449 392.838C46.5348 391.424 45.8677 390.112 44.7902 389.19L40.1447 385.18C40.3077 384.813 40.4544 384.439 40.5929 384.064H47.4471C48.865 384.064 50.2249 383.5 51.2275 382.498C52.2302 381.495 52.7935 380.135 52.7935 378.717C52.7913 377.301 52.2271 375.943 51.2247 374.942C50.2223 373.941 48.8636 373.379 47.4471 373.379Z" fill="#C7B8F8"/>
<path d="M47.4471 373.379H40.4951C40.3647 373.02 40.218 372.67 40.0632 372.328L45.1243 367.845C45.6602 367.384 46.0991 366.821 46.4155 366.188C46.7318 365.556 46.9194 364.867 46.9674 364.161C47.0153 363.456 46.9225 362.748 46.6946 362.079C46.4666 361.409 46.1079 360.792 45.6393 360.262C45.1708 359.733 44.6016 359.301 43.965 358.994C43.3284 358.686 42.637 358.508 41.9309 358.469C41.2248 358.431 40.5182 358.533 39.852 358.77C39.1858 359.007 38.5733 359.374 38.0501 359.85L32.72 364.569C32.6385 364.642 32.5733 364.732 32.4918 364.813C32.1577 364.659 31.8154 364.52 31.4649 364.39V357.927C31.411 356.546 30.8245 355.24 29.8285 354.282C28.8326 353.324 27.5044 352.789 26.1226 352.789C24.7408 352.789 23.4126 353.324 22.4166 354.282C21.4207 355.24 20.8342 356.546 20.7803 357.927V364.39C20.2863 364.571 19.8021 364.778 19.3296 365.009C19.1795 364.823 19.0161 364.649 18.8406 364.487L13.4697 359.85C12.3887 358.989 11.0161 358.579 9.63986 358.708C8.26361 358.837 6.99068 359.493 6.08817 360.54C5.18565 361.587 4.7237 362.943 4.79924 364.323C4.87478 365.703 5.48194 367.001 6.49332 367.943L11.8886 372.597C11.9313 372.634 11.9777 372.667 12.0272 372.694C11.9294 372.923 11.8479 373.159 11.7582 373.395H5.05892C3.65019 373.402 2.30111 373.965 1.30574 374.962C0.310368 375.959 -0.250596 377.309 -0.254883 378.717C-0.254884 380.134 0.307277 381.492 1.30816 382.495C2.30904 383.497 3.66683 384.061 5.08337 384.064H11.7175L11.8805 384.504H11.8316L6.49332 389.223C5.485 390.176 4.88675 391.484 4.82497 392.87C4.76319 394.256 5.24273 395.612 6.16226 396.651C7.08178 397.69 8.36926 398.331 9.75264 398.438C11.136 398.545 12.5069 398.111 13.5757 397.226L18.9058 392.507L19.0199 392.385C19.6027 392.699 20.2074 392.972 20.8292 393.2V399.606C20.8831 400.986 21.4696 402.293 22.4655 403.251C23.4615 404.208 24.7897 404.743 26.1715 404.743C27.5533 404.743 28.8815 404.208 29.8774 403.251C30.8734 402.293 31.4599 400.986 31.5138 399.606V393.265C31.8806 393.126 32.2473 392.98 32.6059 392.809L37.8382 397.316C38.9157 398.237 40.3153 398.694 41.7291 398.583C43.1429 398.473 44.4551 397.806 45.377 396.729C46.2989 395.651 46.7549 394.252 46.6449 392.838C46.5348 391.424 45.8677 390.112 44.7902 389.19L40.1447 385.18C40.3077 384.813 40.4544 384.439 40.5929 384.064H47.4471C48.865 384.064 50.2249 383.5 51.2275 382.498C52.2302 381.495 52.7935 380.135 52.7935 378.717C52.7913 377.301 52.2271 375.943 51.2247 374.942C50.2223 373.941 48.8636 373.379 47.4471 373.379Z" fill="#C7B8F8"/>
<path d="M47.4471 373.379H40.4951C40.3647 373.02 40.218 372.67 40.0632 372.328L45.1243 367.845C45.6602 367.384 46.0991 366.821 46.4155 366.188C46.7318 365.556 46.9194 364.867 46.9674 364.161C47.0153 363.456 46.9225 362.748 46.6946 362.079C46.4666 361.409 46.1079 360.792 45.6393 360.262C45.1708 359.733 44.6016 359.301 43.965 358.994C43.3284 358.686 42.637 358.508 41.9309 358.469C41.2248 358.431 40.5182 358.533 39.852 358.77C39.1858 359.007 38.5733 359.374 38.0501 359.85L32.72 364.569C32.6385 364.642 32.5733 364.732 32.4918 364.813C32.1577 364.659 31.8154 364.52 31.4649 364.39V357.927C31.411 356.546 30.8245 355.24 29.8285 354.282C28.8326 353.324 27.5044 352.789 26.1226 352.789C24.7408 352.789 23.4126 353.324 22.4166 354.282C21.4207 355.24 20.8342 356.546 20.7803 357.927V364.39C20.2863 364.571 19.8021 364.778 19.3296 365.009C19.1795 364.823 19.0161 364.649 18.8406 364.487L13.4697 359.85C12.3887 358.989 11.0161 358.579 9.63986 358.708C8.26361 358.837 6.99068 359.493 6.08817 360.54C5.18565 361.587 4.7237 362.943 4.79924 364.323C4.87478 365.703 5.48194 367.001 6.49332 367.943L11.8886 372.597C11.9313 372.634 11.9777 372.667 12.0272 372.694C11.9294 372.923 11.8479 373.159 11.7582 373.395H5.05892C3.65019 373.402 2.30111 373.965 1.30574 374.962C0.310368 375.959 -0.250596 377.309 -0.254883 378.717C-0.254884 380.134 0.307277 381.492 1.30816 382.495C2.30904 383.497 3.66683 384.061 5.08337 384.064H11.7175L11.8805 384.504H11.8316L6.49332 389.223C5.485 390.176 4.88675 391.484 4.82497 392.87C4.76319 394.256 5.24273 395.612 6.16226 396.651C7.08178 397.69 8.36926 398.331 9.75264 398.438C11.136 398.545 12.5069 398.111 13.5757 397.226L18.9058 392.507L19.0199 392.385C19.6027 392.699 20.2074 392.972 20.8292 393.2V399.606C20.8831 400.986 21.4696 402.293 22.4655 403.251C23.4615 404.208 24.7897 404.743 26.1715 404.743C27.5533 404.743 28.8815 404.208 29.8774 403.251C30.8734 402.293 31.4599 400.986 31.5138 399.606V393.265C31.8806 393.126 32.2473 392.98 32.6059 392.809L37.8382 397.316C38.9157 398.237 40.3153 398.694 41.7291 398.583C43.1429 398.473 44.4551 397.806 45.377 396.729C46.2989 395.651 46.7549 394.252 46.6449 392.838C46.5348 391.424 45.8677 390.112 44.7902 389.19L40.1447 385.18C40.3077 384.813 40.4544 384.439 40.5929 384.064H47.4471C48.865 384.064 50.2249 383.5 51.2275 382.498C52.2302 381.495 52.7935 380.135 52.7935 378.717C52.7913 377.301 52.2271 375.943 51.2247 374.942C50.2223 373.941 48.8636 373.379 47.4471 373.379Z" fill="#C7B8F8"/>
<path d="M47.4471 373.379H40.4951C40.3647 373.02 40.218 372.67 40.0632 372.328L45.1243 367.845C45.6602 367.384 46.0991 366.821 46.4155 366.188C46.7318 365.556 46.9194 364.867 46.9674 364.161C47.0153 363.456 46.9225 362.748 46.6946 362.079C46.4666 361.409 46.1079 360.792 45.6393 360.262C45.1708 359.733 44.6016 359.301 43.965 358.994C43.3284 358.686 42.637 358.508 41.9309 358.469C41.2248 358.431 40.5182 358.533 39.852 358.77C39.1858 359.007 38.5733 359.374 38.0501 359.85L32.72 364.569C32.6385 364.642 32.5733 364.732 32.4918 364.813C32.1577 364.659 31.8154 364.52 31.4649 364.39V357.927C31.411 356.546 30.8245 355.24 29.8285 354.282C28.8326 353.324 27.5044 352.789 26.1226 352.789C24.7408 352.789 23.4126 353.324 22.4166 354.282C21.4207 355.24 20.8342 356.546 20.7803 357.927V364.39C20.2863 364.571 19.8021 364.778 19.3296 365.009C19.1795 364.823 19.0161 364.649 18.8406 364.487L13.4697 359.85C12.3887 358.989 11.0161 358.579 9.63986 358.708C8.26361 358.837 6.99068 359.493 6.08817 360.54C5.18565 361.587 4.7237 362.943 4.79924 364.323C4.87478 365.703 5.48194 367.001 6.49332 367.943L11.8886 372.597C11.9313 372.634 11.9777 372.667 12.0272 372.694C11.9294 372.923 11.8479 373.159 11.7582 373.395H5.05892C3.65019 373.402 2.30111 373.965 1.30574 374.962C0.310368 375.959 -0.250596 377.309 -0.254883 378.717C-0.254884 380.134 0.307277 381.492 1.30816 382.495C2.30904 383.497 3.66683 384.061 5.08337 384.064H11.7175L11.8805 384.504H11.8316L6.49332 389.223C5.485 390.176 4.88675 391.484 4.82497 392.87C4.76319 394.256 5.24273 395.612 6.16226 396.651C7.08178 397.69 8.36926 398.331 9.75264 398.438C11.136 398.545 12.5069 398.111 13.5757 397.226L18.9058 392.507L19.0199 392.385C19.6027 392.699 20.2074 392.972 20.8292 393.2V399.606C20.8831 400.986 21.4696 402.293 22.4655 403.251C23.4615 404.208 24.7897 404.743 26.1715 404.743C27.5533 404.743 28.8815 404.208 29.8774 403.251C30.8734 402.293 31.4599 400.986 31.5138 399.606V393.265C31.8806 393.126 32.2473 392.98 32.6059 392.809L37.8382 397.316C38.9157 398.237 40.3153 398.694 41.7291 398.583C43.1429 398.473 44.4551 397.806 45.377 396.729C46.2989 395.651 46.7549 394.252 46.6449 392.838C46.5348 391.424 45.8677 390.112 44.7902 389.19L40.1447 385.18C40.3077 384.813 40.4544 384.439 40.5929 384.064H47.4471C48.865 384.064 50.2249 383.5 51.2275 382.498C52.2302 381.495 52.7935 380.135 52.7935 378.717C52.7913 377.301 52.2271 375.943 51.2247 374.942C50.2223 373.941 48.8636 373.379 47.4471 373.379Z" fill="#C7B8F8"/>
<path d="M47.4471 373.379H40.4951C40.3647 373.02 40.218 372.67 40.0632 372.328L45.1243 367.845C45.6602 367.384 46.0991 366.821 46.4155 366.188C46.7318 365.556 46.9194 364.867 46.9674 364.161C47.0153 363.456 46.9225 362.748 46.6946 362.079C46.4666 361.409 46.1079 360.792 45.6393 360.262C45.1708 359.733 44.6016 359.301 43.965 358.994C43.3284 358.686 42.637 358.508 41.9309 358.469C41.2248 358.431 40.5182 358.533 39.852 358.77C39.1858 359.007 38.5733 359.374 38.0501 359.85L32.72 364.569C32.6385 364.642 32.5733 364.732 32.4918 364.813C32.1577 364.659 31.8154 364.52 31.4649 364.39V357.927C31.411 356.546 30.8245 355.24 29.8285 354.282C28.8326 353.324 27.5044 352.789 26.1226 352.789C24.7408 352.789 23.4126 353.324 22.4166 354.282C21.4207 355.24 20.8342 356.546 20.7803 357.927V364.39C20.2863 364.571 19.8021 364.778 19.3296 365.009C19.1795 364.823 19.0161 364.649 18.8406 364.487L13.4697 359.85C12.3887 358.989 11.0161 358.579 9.63986 358.708C8.26361 358.837 6.99068 359.493 6.08817 360.54C5.18565 361.587 4.7237 362.943 4.79924 364.323C4.87478 365.703 5.48194 367.001 6.49332 367.943L11.8886 372.597C11.9313 372.634 11.9777 372.667 12.0272 372.694C11.9294 372.923 11.8479 373.159 11.7582 373.395H5.05892C3.65019 373.402 2.30111 373.965 1.30574 374.962C0.310368 375.959 -0.250596 377.309 -0.254883 378.717C-0.254884 380.134 0.307277 381.492 1.30816 382.495C2.30904 383.497 3.66683 384.061 5.08337 384.064H11.7175L11.8805 384.504H11.8316L6.49332 389.223C5.485 390.176 4.88675 391.484 4.82497 392.87C4.76319 394.256 5.24273 395.612 6.16226 396.651C7.08178 397.69 8.36926 398.331 9.75264 398.438C11.136 398.545 12.5069 398.111 13.5757 397.226L18.9058 392.507L19.0199 392.385C19.6027 392.699 20.2074 392.972 20.8292 393.2V399.606C20.8831 400.986 21.4696 402.293 22.4655 403.251C23.4615 404.208 24.7897 404.743 26.1715 404.743C27.5533 404.743 28.8815 404.208 29.8774 403.251C30.8734 402.293 31.4599 400.986 31.5138 399.606V393.265C31.8806 393.126 32.2473 392.98 32.6059 392.809L37.8382 397.316C38.9157 398.237 40.3153 398.694 41.7291 398.583C43.1429 398.473 44.4551 397.806 45.377 396.729C46.2989 395.651 46.7549 394.252 46.6449 392.838C46.5348 391.424 45.8677 390.112 44.7902 389.19L40.1447 385.18C40.3077 384.813 40.4544 384.439 40.5929 384.064H47.4471C48.865 384.064 50.2249 383.5 51.2275 382.498C52.2302 381.495 52.7935 380.135 52.7935 378.717C52.7913 377.301 52.2271 375.943 51.2247 374.942C50.2223 373.941 48.8636 373.379 47.4471 373.379Z" fill="#C7B8F8"/>
<path d="M47.4471 373.379H40.4951C40.3647 373.02 40.218 372.67 40.0632 372.328L45.1243 367.845C45.6602 367.384 46.0991 366.821 46.4155 366.188C46.7318 365.556 46.9194 364.867 46.9674 364.161C47.0153 363.456 46.9225 362.748 46.6946 362.079C46.4666 361.409 46.1079 360.792 45.6393 360.262C45.1708 359.733 44.6016 359.301 43.965 358.994C43.3284 358.686 42.637 358.508 41.9309 358.469C41.2248 358.431 40.5182 358.533 39.852 358.77C39.1858 359.007 38.5733 359.374 38.0501 359.85L32.72 364.569C32.6385 364.642 32.5733 364.732 32.4918 364.813C32.1577 364.659 31.8154 364.52 31.4649 364.39V357.927C31.411 356.546 30.8245 355.24 29.8285 354.282C28.8326 353.324 27.5044 352.789 26.1226 352.789C24.7408 352.789 23.4126 353.324 22.4166 354.282C21.4207 355.24 20.8342 356.546 20.7803 357.927V364.39C20.2863 364.571 19.8021 364.778 19.3296 365.009C19.1795 364.823 19.0161 364.649 18.8406 364.487L13.4697 359.85C12.3887 358.989 11.0161 358.579 9.63986 358.708C8.26361 358.837 6.99068 359.493 6.08817 360.54C5.18565 361.587 4.7237 362.943 4.79924 364.323C4.87478 365.703 5.48194 367.001 6.49332 367.943L11.8886 372.597C11.9313 372.634 11.9777 372.667 12.0272 372.694C11.9294 372.923 11.8479 373.159 11.7582 373.395H5.05892C3.65019 373.402 2.30111 373.965 1.30574 374.962C0.310368 375.959 -0.250596 377.309 -0.254883 378.717C-0.254884 380.134 0.307277 381.492 1.30816 382.495C2.30904 383.497 3.66683 384.061 5.08337 384.064H11.7175L11.8805 384.504H11.8316L6.49332 389.223C5.485 390.176 4.88675 391.484 4.82497 392.87C4.76319 394.256 5.24273 395.612 6.16226 396.651C7.08178 397.69 8.36926 398.331 9.75264 398.438C11.136 398.545 12.5069 398.111 13.5757 397.226L18.9058 392.507L19.0199 392.385C19.6027 392.699 20.2074 392.972 20.8292 393.2V399.606C20.8831 400.986 21.4696 402.293 22.4655 403.251C23.4615 404.208 24.7897 404.743 26.1715 404.743C27.5533 404.743 28.8815 404.208 29.8774 403.251C30.8734 402.293 31.4599 400.986 31.5138 399.606V393.265C31.8806 393.126 32.2473 392.98 32.6059 392.809L37.8382 397.316C38.9157 398.237 40.3153 398.694 41.7291 398.583C43.1429 398.473 44.4551 397.806 45.377 396.729C46.2989 395.651 46.7549 394.252 46.6449 392.838C46.5348 391.424 45.8677 390.112 44.7902 389.19L40.1447 385.18C40.3077 384.813 40.4544 384.439 40.5929 384.064H47.4471C48.865 384.064 50.2249 383.5 51.2275 382.498C52.2302 381.495 52.7935 380.135 52.7935 378.717C52.7913 377.301 52.2271 375.943 51.2247 374.942C50.2223 373.941 48.8636 373.379 47.4471 373.379Z" fill="#C7B8F8"/>
<path d="M47.4471 373.379H40.4951C40.3647 373.02 40.218 372.67 40.0632 372.328L45.1243 367.845C45.6602 367.384 46.0991 366.821 46.4155 366.188C46.7318 365.556 46.9194 364.867 46.9674 364.161C47.0153 363.456 46.9225 362.748 46.6946 362.079C46.4666 361.409 46.1079 360.792 45.6393 360.262C45.1708 359.733 44.6016 359.301 43.965 358.994C43.3284 358.686 42.637 358.508 41.9309 358.469C41.2248 358.431 40.5182 358.533 39.852 358.77C39.1858 359.007 38.5733 359.374 38.0501 359.85L32.72 364.569C32.6385 364.642 32.5733 364.732 32.4918 364.813C32.1577 364.659 31.8154 364.52 31.4649 364.39V357.927C31.411 356.546 30.8245 355.24 29.8285 354.282C28.8326 353.324 27.5044 352.789 26.1226 352.789C24.7408 352.789 23.4126 353.324 22.4166 354.282C21.4207 355.24 20.8342 356.546 20.7803 357.927V364.39C20.2863 364.571 19.8021 364.778 19.3296 365.009C19.1795 364.823 19.0161 364.649 18.8406 364.487L13.4697 359.85C12.3887 358.989 11.0161 358.579 9.63986 358.708C8.26361 358.837 6.99068 359.493 6.08817 360.54C5.18565 361.587 4.7237 362.943 4.79924 364.323C4.87478 365.703 5.48194 367.001 6.49332 367.943L11.8886 372.597C11.9313 372.634 11.9777 372.667 12.0272 372.694C11.9294 372.923 11.8479 373.159 11.7582 373.395H5.05892C3.65019 373.402 2.30111 373.965 1.30574 374.962C0.310368 375.959 -0.250596 377.309 -0.254883 378.717C-0.254884 380.134 0.307277 381.492 1.30816 382.495C2.30904 383.497 3.66683 384.061 5.08337 384.064H11.7175L11.8805 384.504H11.8316L6.49332 389.223C5.485 390.176 4.88675 391.484 4.82497 392.87C4.76319 394.256 5.24273 395.612 6.16226 396.651C7.08178 397.69 8.36926 398.331 9.75264 398.438C11.136 398.545 12.5069 398.111 13.5757 397.226L18.9058 392.507L19.0199 392.385C19.6027 392.699 20.2074 392.972 20.8292 393.2V399.606C20.8831 400.986 21.4696 402.293 22.4655 403.251C23.4615 404.208 24.7897 404.743 26.1715 404.743C27.5533 404.743 28.8815 404.208 29.8774 403.251C30.8734 402.293 31.4599 400.986 31.5138 399.606V393.265C31.8806 393.126 32.2473 392.98 32.6059 392.809L37.8382 397.316C38.9157 398.237 40.3153 398.694 41.7291 398.583C43.1429 398.473 44.4551 397.806 45.377 396.729C46.2989 395.651 46.7549 394.252 46.6449 392.838C46.5348 391.424 45.8677 390.112 44.7902 389.19L40.1447 385.18C40.3077 384.813 40.4544 384.439 40.5929 384.064H47.4471C48.865 384.064 50.2249 383.5 51.2275 382.498C52.2302 381.495 52.7935 380.135 52.7935 378.717C52.7913 377.301 52.2271 375.943 51.2247 374.942C50.2223 373.941 48.8636 373.379 47.4471 373.379Z" fill="#C7B8F8"/>
<path d="M104.334 393.061H97.4145C97.2841 392.703 97.1374 392.36 96.9744 392.018L102.044 387.536C103.052 386.582 103.65 385.275 103.712 383.888C103.774 382.502 103.294 381.146 102.375 380.107C101.455 379.068 100.168 378.427 98.7844 378.32C97.401 378.213 96.0301 378.647 94.9613 379.532L89.6312 384.251C89.551 384.329 89.4749 384.41 89.403 384.496C89.0689 384.341 88.7184 384.202 88.368 384.072V377.609C88.314 376.228 87.7276 374.922 86.7316 373.964C85.7356 373.006 84.4075 372.471 83.0256 372.471C81.6438 372.471 80.3157 373.006 79.3197 373.964C78.3237 374.922 77.7373 376.228 77.6833 377.609V384.072C77.1943 384.251 76.7135 384.463 76.2408 384.691C76.0885 384.508 75.9252 384.333 75.7518 384.17L70.3565 379.516C69.8301 379.026 69.2101 378.646 68.5337 378.401C67.8573 378.156 67.1383 378.05 66.42 378.089C65.7016 378.129 64.9985 378.313 64.3529 378.63C63.7073 378.948 63.1324 379.392 62.6627 379.937C62.1929 380.482 61.838 381.116 61.6191 381.802C61.4003 382.487 61.322 383.209 61.389 383.926C61.4559 384.642 61.6668 385.337 62.009 385.97C62.3511 386.603 62.8174 387.161 63.3801 387.609L68.7672 392.263C68.8142 392.298 68.8632 392.331 68.9139 392.36C68.8161 392.589 68.7265 392.825 68.645 393.061H61.9457C60.5299 393.061 59.1721 393.624 58.171 394.625C57.1698 395.626 56.6074 396.984 56.6074 398.4C56.6074 399.816 57.1696 401.175 58.1705 402.177C59.1713 403.18 60.5291 403.744 61.9457 403.746H68.5798C68.6287 403.893 68.6857 404.047 68.7428 404.194C68.7428 404.194 68.7428 404.194 68.6939 404.194L63.3556 408.913C62.8034 409.37 62.3488 409.934 62.0189 410.57C61.6889 411.207 61.4903 411.903 61.4348 412.618C61.3794 413.332 61.4683 414.051 61.6962 414.731C61.9241 415.41 62.2863 416.037 62.7614 416.574C63.2365 417.111 63.8147 417.547 64.4616 417.856C65.1086 418.165 65.811 418.34 66.5272 418.372C67.2434 418.404 67.9586 418.292 68.6305 418.042C69.3023 417.791 69.917 417.409 70.438 416.916L75.7681 412.197L75.8822 412.083C76.4646 412.393 77.0662 412.665 77.6833 412.898V419.345C77.7373 420.726 78.3237 422.032 79.3197 422.99C80.3157 423.948 81.6438 424.483 83.0256 424.483C84.4075 424.483 85.7356 423.948 86.7316 422.99C87.7276 422.032 88.314 420.726 88.368 419.345V412.907C88.7429 412.768 89.1096 412.621 89.4682 412.45L94.6924 416.957C95.2232 417.416 95.8392 417.765 96.5052 417.986C97.1711 418.206 97.874 418.294 98.5736 418.243C99.2733 418.191 99.9561 418.003 100.583 417.688C101.21 417.373 101.768 416.938 102.227 416.407C102.686 415.876 103.035 415.26 103.256 414.594C103.476 413.928 103.564 413.225 103.512 412.526C103.461 411.826 103.273 411.143 102.958 410.516C102.643 409.89 102.208 409.331 101.677 408.872L97.0233 404.862C97.1944 404.496 97.3411 404.121 97.4797 403.746H104.334C105.75 403.744 107.108 403.18 108.109 402.177C109.11 401.175 109.672 399.816 109.672 398.4C109.672 397.698 109.534 397.004 109.266 396.357C108.997 395.709 108.604 395.121 108.109 394.625C107.613 394.129 107.024 393.736 106.377 393.468C105.729 393.199 105.035 393.061 104.334 393.061Z" fill="#C7B8F8"/>
<path d="M104.334 393.061H97.4145C97.2841 392.703 97.1374 392.36 96.9744 392.018L102.044 387.536C103.052 386.582 103.65 385.275 103.712 383.888C103.774 382.502 103.294 381.146 102.375 380.107C101.455 379.068 100.168 378.427 98.7844 378.32C97.401 378.213 96.0301 378.647 94.9613 379.532L89.6312 384.251C89.551 384.329 89.4749 384.41 89.403 384.496C89.0689 384.341 88.7184 384.202 88.368 384.072V377.609C88.314 376.228 87.7276 374.922 86.7316 373.964C85.7356 373.006 84.4075 372.471 83.0256 372.471C81.6438 372.471 80.3157 373.006 79.3197 373.964C78.3237 374.922 77.7373 376.228 77.6833 377.609V384.072C77.1943 384.251 76.7135 384.463 76.2408 384.691C76.0885 384.508 75.9252 384.333 75.7518 384.17L70.3565 379.516C69.8301 379.026 69.2101 378.646 68.5337 378.401C67.8573 378.156 67.1383 378.05 66.42 378.089C65.7016 378.129 64.9985 378.313 64.3529 378.63C63.7073 378.948 63.1324 379.392 62.6627 379.937C62.1929 380.482 61.838 381.116 61.6191 381.802C61.4003 382.487 61.322 383.209 61.389 383.926C61.4559 384.642 61.6668 385.337 62.009 385.97C62.3511 386.603 62.8174 387.161 63.3801 387.609L68.7672 392.263C68.8142 392.298 68.8632 392.331 68.9139 392.36C68.8161 392.589 68.7265 392.825 68.645 393.061H61.9457C60.5299 393.061 59.1721 393.624 58.171 394.625C57.1698 395.626 56.6074 396.984 56.6074 398.4C56.6074 399.816 57.1696 401.175 58.1705 402.177C59.1713 403.18 60.5291 403.744 61.9457 403.746H68.5798C68.6287 403.893 68.6857 404.047 68.7428 404.194C68.7428 404.194 68.7428 404.194 68.6939 404.194L63.3556 408.913C62.8034 409.37 62.3488 409.934 62.0189 410.57C61.6889 411.207 61.4903 411.903 61.4348 412.618C61.3794 413.332 61.4683 414.051 61.6962 414.731C61.9241 415.41 62.2863 416.037 62.7614 416.574C63.2365 417.111 63.8147 417.547 64.4616 417.856C65.1086 418.165 65.811 418.34 66.5272 418.372C67.2434 418.404 67.9586 418.292 68.6305 418.042C69.3023 417.791 69.917 417.409 70.438 416.916L75.7681 412.197L75.8822 412.083C76.4646 412.393 77.0662 412.665 77.6833 412.898V419.345C77.7373 420.726 78.3237 422.032 79.3197 422.99C80.3157 423.948 81.6438 424.483 83.0256 424.483C84.4075 424.483 85.7356 423.948 86.7316 422.99C87.7276 422.032 88.314 420.726 88.368 419.345V412.907C88.7429 412.768 89.1096 412.621 89.4682 412.45L94.6924 416.957C95.2232 417.416 95.8392 417.765 96.5052 417.986C97.1711 418.206 97.874 418.294 98.5736 418.243C99.2733 418.191 99.9561 418.003 100.583 417.688C101.21 417.373 101.768 416.938 102.227 416.407C102.686 415.876 103.035 415.26 103.256 414.594C103.476 413.928 103.564 413.225 103.512 412.526C103.461 411.826 103.273 411.143 102.958 410.516C102.643 409.89 102.208 409.331 101.677 408.872L97.0233 404.862C97.1944 404.496 97.3411 404.121 97.4797 403.746H104.334C105.75 403.744 107.108 403.18 108.109 402.177C109.11 401.175 109.672 399.816 109.672 398.4C109.672 397.698 109.534 397.004 109.266 396.357C108.997 395.709 108.604 395.121 108.109 394.625C107.613 394.129 107.024 393.736 106.377 393.468C105.729 393.199 105.035 393.061 104.334 393.061Z" fill="#C7B8F8"/>
<path d="M104.334 393.061H97.4145C97.2841 392.703 97.1374 392.36 96.9744 392.018L102.044 387.536C103.052 386.582 103.65 385.275 103.712 383.888C103.774 382.502 103.294 381.146 102.375 380.107C101.455 379.068 100.168 378.427 98.7844 378.32C97.401 378.213 96.0301 378.647 94.9613 379.532L89.6312 384.251C89.551 384.329 89.4749 384.41 89.403 384.496C89.0689 384.341 88.7184 384.202 88.368 384.072V377.609C88.314 376.228 87.7276 374.922 86.7316 373.964C85.7356 373.006 84.4075 372.471 83.0256 372.471C81.6438 372.471 80.3157 373.006 79.3197 373.964C78.3237 374.922 77.7373 376.228 77.6833 377.609V384.072C77.1943 384.251 76.7135 384.463 76.2408 384.691C76.0885 384.508 75.9252 384.333 75.7518 384.17L70.3565 379.516C69.8301 379.026 69.2101 378.646 68.5337 378.401C67.8573 378.156 67.1383 378.05 66.42 378.089C65.7016 378.129 64.9985 378.313 64.3529 378.63C63.7073 378.948 63.1324 379.392 62.6627 379.937C62.1929 380.482 61.838 381.116 61.6191 381.802C61.4003 382.487 61.322 383.209 61.389 383.926C61.4559 384.642 61.6668 385.337 62.009 385.97C62.3511 386.603 62.8174 387.161 63.3801 387.609L68.7672 392.263C68.8142 392.298 68.8632 392.331 68.9139 392.36C68.8161 392.589 68.7265 392.825 68.645 393.061H61.9457C60.5299 393.061 59.1721 393.624 58.171 394.625C57.1698 395.626 56.6074 396.984 56.6074 398.4C56.6074 399.816 57.1696 401.175 58.1705 402.177C59.1713 403.18 60.5291 403.744 61.9457 403.746H68.5798C68.6287 403.893 68.6857 404.047 68.7428 404.194C68.7428 404.194 68.7428 404.194 68.6939 404.194L63.3556 408.913C62.8034 409.37 62.3488 409.934 62.0189 410.57C61.6889 411.207 61.4903 411.903 61.4348 412.618C61.3794 413.332 61.4683 414.051 61.6962 414.731C61.9241 415.41 62.2863 416.037 62.7614 416.574C63.2365 417.111 63.8147 417.547 64.4616 417.856C65.1086 418.165 65.811 418.34 66.5272 418.372C67.2434 418.404 67.9586 418.292 68.6305 418.042C69.3023 417.791 69.917 417.409 70.438 416.916L75.7681 412.197L75.8822 412.083C76.4646 412.393 77.0662 412.665 77.6833 412.898V419.345C77.7373 420.726 78.3237 422.032 79.3197 422.99C80.3157 423.948 81.6438 424.483 83.0256 424.483C84.4075 424.483 85.7356 423.948 86.7316 422.99C87.7276 422.032 88.314 420.726 88.368 419.345V412.907C88.7429 412.768 89.1096 412.621 89.4682 412.45L94.6924 416.957C95.2232 417.416 95.8392 417.765 96.5052 417.986C97.1711 418.206 97.874 418.294 98.5736 418.243C99.2733 418.191 99.9561 418.003 100.583 417.688C101.21 417.373 101.768 416.938 102.227 416.407C102.686 415.876 103.035 415.26 103.256 414.594C103.476 413.928 103.564 413.225 103.512 412.526C103.461 411.826 103.273 411.143 102.958 410.516C102.643 409.89 102.208 409.331 101.677 408.872L97.0233 404.862C97.1944 404.496 97.3411 404.121 97.4797 403.746H104.334C105.75 403.744 107.108 403.18 108.109 402.177C109.11 401.175 109.672 399.816 109.672 398.4C109.672 397.698 109.534 397.004 109.266 396.357C108.997 395.709 108.604 395.121 108.109 394.625C107.613 394.129 107.024 393.736 106.377 393.468C105.729 393.199 105.035 393.061 104.334 393.061Z" fill="#C7B8F8"/>
<path d="M104.334 393.061H97.4145C97.2841 392.703 97.1374 392.36 96.9744 392.018L102.044 387.536C103.052 386.582 103.65 385.275 103.712 383.888C103.774 382.502 103.294 381.146 102.375 380.107C101.455 379.068 100.168 378.427 98.7844 378.32C97.401 378.213 96.0301 378.647 94.9613 379.532L89.6312 384.251C89.551 384.329 89.4749 384.41 89.403 384.496C89.0689 384.341 88.7184 384.202 88.368 384.072V377.609C88.314 376.228 87.7276 374.922 86.7316 373.964C85.7356 373.006 84.4075 372.471 83.0256 372.471C81.6438 372.471 80.3157 373.006 79.3197 373.964C78.3237 374.922 77.7373 376.228 77.6833 377.609V384.072C77.1943 384.251 76.7135 384.463 76.2408 384.691C76.0885 384.508 75.9252 384.333 75.7518 384.17L70.3565 379.516C69.8301 379.026 69.2101 378.646 68.5337 378.401C67.8573 378.156 67.1383 378.05 66.42 378.089C65.7016 378.129 64.9985 378.313 64.3529 378.63C63.7073 378.948 63.1324 379.392 62.6627 379.937C62.1929 380.482 61.838 381.116 61.6191 381.802C61.4003 382.487 61.322 383.209 61.389 383.926C61.4559 384.642 61.6668 385.337 62.009 385.97C62.3511 386.603 62.8174 387.161 63.3801 387.609L68.7672 392.263C68.8142 392.298 68.8632 392.331 68.9139 392.36C68.8161 392.589 68.7265 392.825 68.645 393.061H61.9457C60.5299 393.061 59.1721 393.624 58.171 394.625C57.1698 395.626 56.6074 396.984 56.6074 398.4C56.6074 399.816 57.1696 401.175 58.1705 402.177C59.1713 403.18 60.5291 403.744 61.9457 403.746H68.5798C68.6287 403.893 68.6857 404.047 68.7428 404.194C68.7428 404.194 68.7428 404.194 68.6939 404.194L63.3556 408.913C62.8034 409.37 62.3488 409.934 62.0189 410.57C61.6889 411.207 61.4903 411.903 61.4348 412.618C61.3794 413.332 61.4683 414.051 61.6962 414.731C61.9241 415.41 62.2863 416.037 62.7614 416.574C63.2365 417.111 63.8147 417.547 64.4616 417.856C65.1086 418.165 65.811 418.34 66.5272 418.372C67.2434 418.404 67.9586 418.292 68.6305 418.042C69.3023 417.791 69.917 417.409 70.438 416.916L75.7681 412.197L75.8822 412.083C76.4646 412.393 77.0662 412.665 77.6833 412.898V419.345C77.7373 420.726 78.3237 422.032 79.3197 422.99C80.3157 423.948 81.6438 424.483 83.0256 424.483C84.4075 424.483 85.7356 423.948 86.7316 422.99C87.7276 422.032 88.314 420.726 88.368 419.345V412.907C88.7429 412.768 89.1096 412.621 89.4682 412.45L94.6924 416.957C95.2232 417.416 95.8392 417.765 96.5052 417.986C97.1711 418.206 97.874 418.294 98.5736 418.243C99.2733 418.191 99.9561 418.003 100.583 417.688C101.21 417.373 101.768 416.938 102.227 416.407C102.686 415.876 103.035 415.26 103.256 414.594C103.476 413.928 103.564 413.225 103.512 412.526C103.461 411.826 103.273 411.143 102.958 410.516C102.643 409.89 102.208 409.331 101.677 408.872L97.0233 404.862C97.1944 404.496 97.3411 404.121 97.4797 403.746H104.334C105.75 403.744 107.108 403.18 108.109 402.177C109.11 401.175 109.672 399.816 109.672 398.4C109.672 397.698 109.534 397.004 109.266 396.357C108.997 395.709 108.604 395.121 108.109 394.625C107.613 394.129 107.024 393.736 106.377 393.468C105.729 393.199 105.035 393.061 104.334 393.061Z" fill="#C7B8F8"/>
<path d="M104.334 393.061H97.4145C97.2841 392.703 97.1374 392.36 96.9744 392.018L102.044 387.536C103.052 386.582 103.65 385.275 103.712 383.888C103.774 382.502 103.294 381.146 102.375 380.107C101.455 379.068 100.168 378.427 98.7844 378.32C97.401 378.213 96.0301 378.647 94.9613 379.532L89.6312 384.251C89.551 384.329 89.4749 384.41 89.403 384.496C89.0689 384.341 88.7184 384.202 88.368 384.072V377.609C88.314 376.228 87.7276 374.922 86.7316 373.964C85.7356 373.006 84.4075 372.471 83.0256 372.471C81.6438 372.471 80.3157 373.006 79.3197 373.964C78.3237 374.922 77.7373 376.228 77.6833 377.609V384.072C77.1943 384.251 76.7135 384.463 76.2408 384.691C76.0885 384.508 75.9252 384.333 75.7518 384.17L70.3565 379.516C69.8301 379.026 69.2101 378.646 68.5337 378.401C67.8573 378.156 67.1383 378.05 66.42 378.089C65.7016 378.129 64.9985 378.313 64.3529 378.63C63.7073 378.948 63.1324 379.392 62.6627 379.937C62.1929 380.482 61.838 381.116 61.6191 381.802C61.4003 382.487 61.322 383.209 61.389 383.926C61.4559 384.642 61.6668 385.337 62.009 385.97C62.3511 386.603 62.8174 387.161 63.3801 387.609L68.7672 392.263C68.8142 392.298 68.8632 392.331 68.9139 392.36C68.8161 392.589 68.7265 392.825 68.645 393.061H61.9457C60.5299 393.061 59.1721 393.624 58.171 394.625C57.1698 395.626 56.6074 396.984 56.6074 398.4C56.6074 399.816 57.1696 401.175 58.1705 402.177C59.1713 403.18 60.5291 403.744 61.9457 403.746H68.5798C68.6287 403.893 68.6857 404.047 68.7428 404.194C68.7428 404.194 68.7428 404.194 68.6939 404.194L63.3556 408.913C62.8034 409.37 62.3488 409.934 62.0189 410.57C61.6889 411.207 61.4903 411.903 61.4348 412.618C61.3794 413.332 61.4683 414.051 61.6962 414.731C61.9241 415.41 62.2863 416.037 62.7614 416.574C63.2365 417.111 63.8147 417.547 64.4616 417.856C65.1086 418.165 65.811 418.34 66.5272 418.372C67.2434 418.404 67.9586 418.292 68.6305 418.042C69.3023 417.791 69.917 417.409 70.438 416.916L75.7681 412.197L75.8822 412.083C76.4646 412.393 77.0662 412.665 77.6833 412.898V419.345C77.7373 420.726 78.3237 422.032 79.3197 422.99C80.3157 423.948 81.6438 424.483 83.0256 424.483C84.4075 424.483 85.7356 423.948 86.7316 422.99C87.7276 422.032 88.314 420.726 88.368 419.345V412.907C88.7429 412.768 89.1096 412.621 89.4682 412.45L94.6924 416.957C95.2232 417.416 95.8392 417.765 96.5052 417.986C97.1711 418.206 97.874 418.294 98.5736 418.243C99.2733 418.191 99.9561 418.003 100.583 417.688C101.21 417.373 101.768 416.938 102.227 416.407C102.686 415.876 103.035 415.26 103.256 414.594C103.476 413.928 103.564 413.225 103.512 412.526C103.461 411.826 103.273 411.143 102.958 410.516C102.643 409.89 102.208 409.331 101.677 408.872L97.0233 404.862C97.1944 404.496 97.3411 404.121 97.4797 403.746H104.334C105.75 403.744 107.108 403.18 108.109 402.177C109.11 401.175 109.672 399.816 109.672 398.4C109.672 397.698 109.534 397.004 109.266 396.357C108.997 395.709 108.604 395.121 108.109 394.625C107.613 394.129 107.024 393.736 106.377 393.468C105.729 393.199 105.035 393.061 104.334 393.061Z" fill="#C7B8F8"/>
<path d="M104.334 393.061H97.4145C97.2841 392.703 97.1374 392.36 96.9744 392.018L102.044 387.536C103.052 386.582 103.65 385.275 103.712 383.888C103.774 382.502 103.294 381.146 102.375 380.107C101.455 379.068 100.168 378.427 98.7844 378.32C97.401 378.213 96.0301 378.647 94.9613 379.532L89.6312 384.251C89.551 384.329 89.4749 384.41 89.403 384.496C89.0689 384.341 88.7184 384.202 88.368 384.072V377.609C88.314 376.228 87.7276 374.922 86.7316 373.964C85.7356 373.006 84.4075 372.471 83.0256 372.471C81.6438 372.471 80.3157 373.006 79.3197 373.964C78.3237 374.922 77.7373 376.228 77.6833 377.609V384.072C77.1943 384.251 76.7135 384.463 76.2408 384.691C76.0885 384.508 75.9252 384.333 75.7518 384.17L70.3565 379.516C69.8301 379.026 69.2101 378.646 68.5337 378.401C67.8573 378.156 67.1383 378.05 66.42 378.089C65.7016 378.129 64.9985 378.313 64.3529 378.63C63.7073 378.948 63.1324 379.392 62.6627 379.937C62.1929 380.482 61.838 381.116 61.6191 381.802C61.4003 382.487 61.322 383.209 61.389 383.926C61.4559 384.642 61.6668 385.337 62.009 385.97C62.3511 386.603 62.8174 387.161 63.3801 387.609L68.7672 392.263C68.8142 392.298 68.8632 392.331 68.9139 392.36C68.8161 392.589 68.7265 392.825 68.645 393.061H61.9457C60.5299 393.061 59.1721 393.624 58.171 394.625C57.1698 395.626 56.6074 396.984 56.6074 398.4C56.6074 399.816 57.1696 401.175 58.1705 402.177C59.1713 403.18 60.5291 403.744 61.9457 403.746H68.5798C68.6287 403.893 68.6857 404.047 68.7428 404.194C68.7428 404.194 68.7428 404.194 68.6939 404.194L63.3556 408.913C62.8034 409.37 62.3488 409.934 62.0189 410.57C61.6889 411.207 61.4903 411.903 61.4348 412.618C61.3794 413.332 61.4683 414.051 61.6962 414.731C61.9241 415.41 62.2863 416.037 62.7614 416.574C63.2365 417.111 63.8147 417.547 64.4616 417.856C65.1086 418.165 65.811 418.34 66.5272 418.372C67.2434 418.404 67.9586 418.292 68.6305 418.042C69.3023 417.791 69.917 417.409 70.438 416.916L75.7681 412.197L75.8822 412.083C76.4646 412.393 77.0662 412.665 77.6833 412.898V419.345C77.7373 420.726 78.3237 422.032 79.3197 422.99C80.3157 423.948 81.6438 424.483 83.0256 424.483C84.4075 424.483 85.7356 423.948 86.7316 422.99C87.7276 422.032 88.314 420.726 88.368 419.345V412.907C88.7429 412.768 89.1096 412.621 89.4682 412.45L94.6924 416.957C95.2232 417.416 95.8392 417.765 96.5052 417.986C97.1711 418.206 97.874 418.294 98.5736 418.243C99.2733 418.191 99.9561 418.003 100.583 417.688C101.21 417.373 101.768 416.938 102.227 416.407C102.686 415.876 103.035 415.26 103.256 414.594C103.476 413.928 103.564 413.225 103.512 412.526C103.461 411.826 103.273 411.143 102.958 410.516C102.643 409.89 102.208 409.331 101.677 408.872L97.0233 404.862C97.1944 404.496 97.3411 404.121 97.4797 403.746H104.334C105.75 403.744 107.108 403.18 108.109 402.177C109.11 401.175 109.672 399.816 109.672 398.4C109.672 397.698 109.534 397.004 109.266 396.357C108.997 395.709 108.604 395.121 108.109 394.625C107.613 394.129 107.024 393.736 106.377 393.468C105.729 393.199 105.035 393.061 104.334 393.061Z" fill="#C7B8F8"/>
<path d="M104.334 393.061H97.4145C97.2841 392.703 97.1374 392.36 96.9744 392.018L102.044 387.536C103.052 386.582 103.65 385.275 103.712 383.888C103.774 382.502 103.294 381.146 102.375 380.107C101.455 379.068 100.168 378.427 98.7844 378.32C97.401 378.213 96.0301 378.647 94.9613 379.532L89.6312 384.251C89.551 384.329 89.4749 384.41 89.403 384.496C89.0689 384.341 88.7184 384.202 88.368 384.072V377.609C88.314 376.228 87.7276 374.922 86.7316 373.964C85.7356 373.006 84.4075 372.471 83.0256 372.471C81.6438 372.471 80.3157 373.006 79.3197 373.964C78.3237 374.922 77.7373 376.228 77.6833 377.609V384.072C77.1943 384.251 76.7135 384.463 76.2408 384.691C76.0885 384.508 75.9252 384.333 75.7518 384.17L70.3565 379.516C69.8301 379.026 69.2101 378.646 68.5337 378.401C67.8573 378.156 67.1383 378.05 66.42 378.089C65.7016 378.129 64.9985 378.313 64.3529 378.63C63.7073 378.948 63.1324 379.392 62.6627 379.937C62.1929 380.482 61.838 381.116 61.6191 381.802C61.4003 382.487 61.322 383.209 61.389 383.926C61.4559 384.642 61.6668 385.337 62.009 385.97C62.3511 386.603 62.8174 387.161 63.3801 387.609L68.7672 392.263C68.8142 392.298 68.8632 392.331 68.9139 392.36C68.8161 392.589 68.7265 392.825 68.645 393.061H61.9457C60.5299 393.061 59.1721 393.624 58.171 394.625C57.1698 395.626 56.6074 396.984 56.6074 398.4C56.6074 399.816 57.1696 401.175 58.1705 402.177C59.1713 403.18 60.5291 403.744 61.9457 403.746H68.5798C68.6287 403.893 68.6857 404.047 68.7428 404.194C68.7428 404.194 68.7428 404.194 68.6939 404.194L63.3556 408.913C62.8034 409.37 62.3488 409.934 62.0189 410.57C61.6889 411.207 61.4903 411.903 61.4348 412.618C61.3794 413.332 61.4683 414.051 61.6962 414.731C61.9241 415.41 62.2863 416.037 62.7614 416.574C63.2365 417.111 63.8147 417.547 64.4616 417.856C65.1086 418.165 65.811 418.34 66.5272 418.372C67.2434 418.404 67.9586 418.292 68.6305 418.042C69.3023 417.791 69.917 417.409 70.438 416.916L75.7681 412.197L75.8822 412.083C76.4646 412.393 77.0662 412.665 77.6833 412.898V419.345C77.7373 420.726 78.3237 422.032 79.3197 422.99C80.3157 423.948 81.6438 424.483 83.0256 424.483C84.4075 424.483 85.7356 423.948 86.7316 422.99C87.7276 422.032 88.314 420.726 88.368 419.345V412.907C88.7429 412.768 89.1096 412.621 89.4682 412.45L94.6924 416.957C95.2232 417.416 95.8392 417.765 96.5052 417.986C97.1711 418.206 97.874 418.294 98.5736 418.243C99.2733 418.191 99.9561 418.003 100.583 417.688C101.21 417.373 101.768 416.938 102.227 416.407C102.686 415.876 103.035 415.26 103.256 414.594C103.476 413.928 103.564 413.225 103.512 412.526C103.461 411.826 103.273 411.143 102.958 410.516C102.643 409.89 102.208 409.331 101.677 408.872L97.0233 404.862C97.1944 404.496 97.3411 404.121 97.4797 403.746H104.334C105.75 403.744 107.108 403.18 108.109 402.177C109.11 401.175 109.672 399.816 109.672 398.4C109.672 397.698 109.534 397.004 109.266 396.357C108.997 395.709 108.604 395.121 108.109 394.625C107.613 394.129 107.024 393.736 106.377 393.468C105.729 393.199 105.035 393.061 104.334 393.061Z" fill="#C7B8F8"/>
<path d="M26.2571 385.849C30.164 385.849 33.3313 382.681 33.3313 378.774C33.3313 374.867 30.164 371.7 26.2571 371.7C22.3501 371.7 19.1829 374.867 19.1829 378.774C19.1829 382.681 22.3501 385.849 26.2571 385.849Z" fill="white"/>
<path d="M83.144 405.914C87.051 405.914 90.2182 402.747 90.2182 398.84C90.2182 394.933 87.051 391.765 83.144 391.765C79.2371 391.765 76.0698 394.933 76.0698 398.84C76.0698 402.747 79.2371 405.914 83.144 405.914Z" fill="white"/>
<path d="M92.435 526.721C89.785 526.721 87.1945 525.935 84.9911 524.463C82.7877 522.991 81.0704 520.898 80.0563 518.45C79.0422 516.002 78.7768 513.308 79.2938 510.709C79.8108 508.11 81.0869 505.722 82.9607 503.848C84.8346 501.975 87.222 500.699 89.8211 500.182C92.4201 499.665 95.1141 499.93 97.5624 500.944C100.011 501.958 102.103 503.675 103.576 505.879C105.048 508.082 105.834 510.673 105.834 513.323C105.829 516.875 104.416 520.28 101.904 522.792C99.3927 525.304 95.9872 526.717 92.435 526.721ZM92.435 503.184C90.4298 503.184 88.4696 503.779 86.8023 504.893C85.135 506.007 83.8355 507.59 83.0681 509.443C82.3008 511.295 82.1 513.334 82.4912 515.301C82.8824 517.267 83.848 519.074 85.2659 520.492C86.6838 521.91 88.4903 522.875 90.457 523.266C92.4237 523.658 94.4623 523.457 96.3149 522.689C98.1674 521.922 99.7509 520.623 100.865 518.955C101.979 517.288 102.574 515.328 102.574 513.323C102.567 510.636 101.497 508.061 99.5969 506.161C97.697 504.261 95.1219 503.191 92.435 503.184Z" fill="black"/>
<path d="M71.3266 549.011C69.4906 549.011 67.6958 548.467 66.1693 547.447C64.6427 546.427 63.4529 544.977 62.7503 543.281C62.0477 541.585 61.8639 539.718 62.2221 537.918C62.5803 536.117 63.4644 534.463 64.7626 533.165C66.0608 531.866 67.7149 530.982 69.5156 530.624C71.3163 530.266 73.1827 530.45 74.8789 531.152C76.5752 531.855 78.0249 533.045 79.045 534.571C80.065 536.098 80.6094 537.893 80.6094 539.729C80.6072 542.19 79.6285 544.55 77.8881 546.29C76.1477 548.031 73.7879 549.009 71.3266 549.011ZM71.3266 533.706C70.1353 533.706 68.9709 534.059 67.9804 534.721C66.99 535.383 66.218 536.323 65.7622 537.424C65.3063 538.524 65.187 539.735 65.4194 540.904C65.6518 542.072 66.2254 543.145 67.0678 543.987C67.9101 544.83 68.9832 545.403 70.1516 545.636C71.3199 545.868 72.5309 545.749 73.6314 545.293C74.7319 544.837 75.6726 544.065 76.3344 543.075C76.9962 542.084 77.3494 540.92 77.3494 539.729C77.3472 538.132 76.712 536.601 75.583 535.472C74.4539 534.343 72.9233 533.708 71.3266 533.706Z" fill="black"/>
</g>
<defs>
<clipPath id="clip0_209_73">
<rect width="779" height="562" fill="white"/>
</clipPath>
</defs>
</svg>
