<svg width="16" height="19" viewBox="0 0 16 19" fill="none" xmlns="http://www.w3.org/2000/svg">
<path d="M7.904 18.224C6.47467 18.224 5.09867 18.0427 3.776 17.68C2.47467 17.296 1.44 16.8373 0.672 16.304L2.208 13.264C2.976 13.7547 3.89333 14.16 4.96 14.48C6.02667 14.8 7.09333 14.96 8.16 14.96C9.41867 14.96 10.3253 14.7893 10.88 14.448C11.456 14.1067 11.744 13.648 11.744 13.072C11.744 12.6027 11.552 12.2507 11.168 12.016C10.784 11.76 10.2827 11.568 9.664 11.44C9.04533 11.312 8.352 11.1947 7.584 11.088C6.83733 10.9813 6.08 10.8427 5.312 10.672C4.56533 10.48 3.88267 10.2133 3.264 9.872C2.64533 9.50933 2.144 9.02933 1.76 8.432C1.376 7.83467 1.184 7.04533 1.184 6.064C1.184 4.976 1.49333 4.03733 2.112 3.248C2.73067 2.43733 3.59467 1.81867 4.704 1.392C5.83467 0.943999 7.168 0.719999 8.704 0.719999C9.856 0.719999 11.0187 0.848 12.192 1.104C13.3653 1.36 14.336 1.72267 15.104 2.192L13.568 5.232C12.7573 4.74133 11.936 4.41067 11.104 4.24C10.2933 4.048 9.48267 3.952 8.672 3.952C7.456 3.952 6.54933 4.13333 5.952 4.496C5.376 4.85867 5.088 5.31733 5.088 5.872C5.088 6.384 5.28 6.768 5.664 7.024C6.048 7.28 6.54933 7.48267 7.168 7.632C7.78667 7.78133 8.46933 7.90933 9.216 8.016C9.984 8.10133 10.7413 8.24 11.488 8.432C12.2347 8.624 12.9173 8.89067 13.536 9.232C14.176 9.552 14.688 10.0107 15.072 10.608C15.456 11.2053 15.648 11.984 15.648 12.944C15.648 14.0107 15.328 14.9387 14.688 15.728C14.0693 16.5173 13.184 17.136 12.032 17.584C10.88 18.0107 9.504 18.224 7.904 18.224Z" fill="#6DC8C2"/>
</svg>
